<?xml version="1.0" encoding="UTF-8"?>
<svg version="1.1" viewBox="0 0 1600 1600" width="400" height="400" xmlns="http://www.w3.org/2000/svg">
<path transform="translate(610,256)" d="m0 0 5 1h14l1-1h14l14 1 17 6 11 5 12 3 3 2-4-7-6-5 2-1 13 9 16 8 7 6 8 11 3 7 2 1v-19l4-1 2 1 2 2 2 8 4 11 7 18 5 10 6 23 3 12 7 19 3 13 1 11v17l-3 33-4 22-5 18 15-1 4 2 2 7v33l-2 26-5 19-5 15-5 6-2 1-16 1-3 25v9l-6 22-8 26-1 6 1 31 4 11 8 9 14 11 14 8 19 11 36 26 25 16 20 12 29 15 31 15 22 10 22 12 14 9 14 10 14 14 10 15 8 16 7 19 20 66 7 28 11 52 7 33 9 45 12 73 3 25 1 13v16l-9 7-27 15-23 12-24 11-33 13-33 11-30 8-3-1-1-13-2-2v-7l-4 1-2 8-1 16-15 4-37 6-38 4-17 1h-59l-38-3-35-5-31-6-42-11-41-14-22-9-26-12-24-12-24-14-21-13-22-15-17-13-22-18-11-10-8-7-12-11-17-17-7-8-7-7-9-11-12-14-12-16-13-18-10-15-12-19-15-27-12-23-12-27-12-31-4-12v-9l10-29 12-29 6-12 10-13 13-13 17-12 19-11 38-19 29-13 21-10 19-10 20-10 24-14 21-12 13-9 13-7 9-9 7-10 2-4v-32l-4-8-6-8-8-13-5-24-3-25-3-20h-8l-5-2-4-5-5-17-5-26-4-27v-20l3-8 4-4 5-1 13 2-7-34-5-41v-27l3-19 4-17 6-16 8-16 8-12 9-10 1-2h2l2-4 9-9 15-10 18-10 11-4 14-5 13-3 8-4zm134 34 1 5h1v-5zm1 20v6l2 1-1-7z" fill="#B8C1B4"/>
<path transform="translate(610,256)" d="m0 0 5 1h14l1-1h14l14 1 17 6 11 5 12 3 3 2-4-7-6-5 2-1 13 9 16 8 7 6 8 11 3 7 2 1v-19l4-1 2 1 2 2 2 8 4 11 7 18 5 10 6 23 3 12 7 19 3 13 1 11v17l-3 33-4 22-5 18 15-1 4 2 2 7v33l-2 26-5 19-5 15-5 6-2 1-16 1-3 25v9l-6 22-8 26-9 11-4 5-17 17-10 8-10 9-9 7-6 3-9 6-19 7-16 2-9 6-9 2-2 4-7 6 1 4-4 2-1 5-4 2 1 3-1 2h-3l-2 5h-2l-1 3h-11l-7-1-1 5h-3v15l2 5v5l-2 2-9-1-21-6-13-4-11-6-3 1h-3l-5-2v-2h-5l-1 6 6 2 1 4-5-1-5-3-3-3-2-1v-2l-9-1 2 4 3 2v2l3 1 1 3-5-2-8-6v-2l-3-1v-2h-2v-2l-4-1v2h-3l-1 2-5 1-10 3-9 1-18 1-3 1-13 1-16 5-5 2-5 3-12 2-9 6-12 5-7 2-9 5-7 2h-4l-5 2-1 3-2-1-5 3-2 2-4 2-5 4h-4l-1 4-7 9-5 7-4 8-5 5-3 7-3 13-2 23v13l4 36 4 23 1 14 6 20 16 48 3 11 1 1 1-12v-44l2-32 1-38 1-22v-23l3 1 3 24 3 51 1 50 1 10 5-4 8-16 5-13 5-6 6-12 4 2-3 14-7 11-2 5-7 14-6 16-3 9-2 12-2 10-1 22-1 8h2v2l2-2-1-3 4-7v-6l2-3 4-15 3-13 3-9 3-5 3-7 5-8 4-13h3l2 5 2 18 2 5 3 5 2 5 5 5 1 13h2l3 4 1 12 7 7 2 10 1 2 1 6 2 4 4 2 3 5 5 1v6l-3 1v14l-3 17-3 9-2 12-1 4-3 9-5-2-24-24-7-8-7-7-9-11-12-14-12-16-13-18-10-15-12-19-15-27-12-23-12-27-12-31-4-12v-9l10-29 12-29 6-12 10-13 13-13 17-12 19-11 38-19 29-13 21-10 19-10 20-10 24-14 21-12 13-9 13-7 9-9 7-10 2-4v-32l-4-8-6-8-8-13-5-24-3-25-3-20h-8l-5-2-4-5-5-17-5-26-4-27v-20l3-8 4-4 5-1 13 2-7-34-5-41v-27l3-19 4-17 6-16 8-16 8-12 9-10 1-2h2l2-4 9-9 15-10 18-10 11-4 14-5 13-3 8-4zm134 34 1 5h1v-5zm1 20v6l2 1-1-7z" fill="#604522"/>
<path transform="translate(647,356)" d="m0 0h19l13 3 2 1h11l10 2-1 3 2 1v-2l11 1 8 3h6l6 4 5 10h2l1 3 3 2v11l2 6v15l-1 8 1 9-1 7 3 5v2l4 1 4 4 4 8 2 6 3 10-1 4 1 3 1 17 1 3 2 1 1-5 5-3h15l4 2 2 7v33l-2 26-5 19-5 15-5 6-2 1-16 1 1-3 3-27-4 10-2 4-2 7-5 10-4 13-4 5h-2l2 6 1 7h-6l1 7-5 6-5 3-3 4h-2l-1 6-2 4-4 1-2-1v5h-2v8l-7 3-3 3h-4l1 8 3 2-1 5-6 2-2 3h-7l-1 6-2 5-2 1h-6v5l-7 3-1 4h-3v3l-7 2-9-3-1 3-3 2h-10l-1-2 1-5-6 2-5 1v-2l-5 1-3-3-5-4v-7l-6 2-2-4-4 1-1-3h-3v-2l-5-1-1-10-3-1-1-7v-3l2-1v-2l4-2v-4l-8-1-4-6 1-2h-6l-5-7 2-4 6-3 5 1 2 1v2l9-1 3 2 4 1 3-1 5 1 5-1v-2l-5-2-4-3v-2l7-1h26l11-2h16l1 1h8l3-2h6l8 7 5 5 2 1 3-4h2l1-11-1-7-1-3-4-2v-2l-4-2-14-3-11-1-4-3-5-2-6-5v-2l-3 1-2-1v-2l-6 2-8-2-4 1-2 15 2 1h14l1 4 4 1 1 3 5-2 14 2 6 5v3l-6 1-6-3h-14l-3-2h-9l-3-1v2l-6 2-5-7-8-3 1-4 5-3 4-1v-3l-3-9v-3l-3-1-1-5 9-2 5-5h-3v-3l-9-3-7-10-3-6v-11l2-6 3-11 1-14v-13l1-7v-24l-3-1v-2h-2l-3-11-14-7-19-5-9-4-5-2-1-3-9-1-3-2-2-9-2-11-3-5v-22l1-5 1-11 1-5 4-9 8-4 3-3 15-6 3-2 32-6 28-1z" fill="#D7B07E"/>
<path transform="translate(610,256)" d="m0 0 5 1h14l1-1h14l14 1 17 6 11 5 12 3 3 2-4-7-6-5 2-1 13 9 16 8 7 6 8 11 3 7 2 1v-19l4-1 2 1 2 2 2 8 4 11 7 18 5 10 6 23 3 12 7 19 3 13 1 11v17l-3 33-2 9-6-4v-2l-3-2v-3l-5-2-1-5h3l-2-1-1-3-3-1-1-3-5-5-2-7-1-9h-5v-8l4-1v3h2l-1-7-4-2v2l-3-1 2-4 3-4v-2l-6-2v-3h2l-2-8-3-3-4-8v-2h2l-4-4-2-5-2-1-1 2v-2l-3-1-3-2-16-3-6-1-13-2-2-5-3 2-4 1v1h-7l-2-3-7 1-2 1h-8l-10 2-12 3-14 1-9-1h-2l-10 1-9 2-15 3-17 3-3 2-10 2v2h-5l-1 2-7 3-5 3-4 6h-2l-2 5-1 3v47l-3 11-7 10 1 3-2 4h-3v-2h-1l-1 4 2 2v5l-4 9-2 12-2 8-2 9-2 7-3-2-3-18-3-6-6-29-5-41v-27l3-19 4-17 6-16 8-16 8-12 9-10 1-2h2l2-4 9-9 15-10 18-10 11-4 14-5 13-3 8-4zm134 34 1 5h1v-5zm1 20v6l2 1-1-7z" fill="#040402"/>
<path transform="translate(483,774)" d="m0 0m-2 1 2 1-1 4 3 7 7 10 5 3 4 4v4h2l2 3v4l5 2 8 4 5 3v2l-9-2v2l-7-2-1-3h-5l-1 6 6 2 1 4-5-1-5-3-3-3-2-1v-2l-9-1 2 4 3 2v2l3 1 1 3-5-2-8-6v-2l-3-1v-2h-2v-2l-4-1v2h-3l-1 2-5 1-10 3-9 1-18 1-3 1-13 1-16 5-5 2-5 3-12 2-9 6-12 5-7 2-9 5-7 2h-4l-5 2-1 3-2-1-5 3-2 2-4 2-5 4h-4l-1 4-7 9-5 7-4 8-5 5-3 7-3 13-2 23v13l4 36 4 23 1 14 6 20 16 48 3 11 1 1 1-12v-44l2-32 1-38 1-22v-23l3 1 3 24 3 51 1 50 1 10 5-4 8-16 5-13 5-6 6-12 4 2-3 14-7 11-2 5-7 14-6 16-3 9-2 12-2 10-1 22-1 8h2v2l2-2-1-3 4-7v-6l2-3 4-15 3-13 3-9 3-5 3-7 5-8 4-13h3l2 5 2 18 2 5 3 5 2 5 5 5 1 13h2l3 4 1 12 7 7 2 10 1 2 1 6 2 4 4 2 3 5 5 1v6l-3 1v14l-3 17-3 9-2 12-1 4-3 9-5-2-24-24-7-8-7-7-9-11-12-14-12-16-13-18-10-15-12-19-15-27-12-23-12-27-12-31-4-12v-9l10-29 12-29 6-12 10-13 13-13 17-12 19-11 38-19 29-13 21-10 19-10 20-10 24-14 21-12z" fill="#58604C"/>
<path transform="translate(492,526)" d="m0 0h1l2 23 2 7 2 4 3 13 1 1 2 9v9h3l3 9-1 4 2 9 4 5 6 15 5 4 1 6h-3l2 8h2l1 7 2 3v3l5-1 5 8 4 2 3 5 1 7 7 1 1 5-2 7 10-2 4 4 1 2v9l5 1 3 3 3 1 1 6 5-1 2 7 5-1h4l4 7v8l-1 3 6-1 3 1v2h5l1 1 1-2h-2v-2h-2v-2l3 1v2h2v3h2l2 2 1-2 6 1v-2h-5l-1-1v-8l-6 2-4-5-3 3h-3v-5h2l-2-3-5-3-5-5-5 3-3-7-2-6-5 1-2-2v-4l-5-1-1-6 2-5-5-2v-3l-5-1-1-2 1-2-5-1v-7l-5 2-2 1v-5h-2l2-4 11-1 1-5 3-5 5-5 7 1 9 4 9 3-1-5 9-4 17 1v1l-17 1h-2v2l4 2 5 3v2l-7 2-5-1h-3l-4-1-5-1h-5v-2l-7-1-7 4 1 4 2 2 1 2 6 1 1 4 2 3 8 2 1 4-2 2h-3v4l-1 7 3 3 2 10 8 3v3l5-2 2 4 5-1 1 7 7 5v2l5-1v2l5-2 6-1v6h10l4-4h5l5 2 6-1v-3h3l1-5 7-2v-5l8-1 1-5 2-6 7-1 3-4 5-1 1-4-4-2v-8l5-2 5-4h3v-6l1-2h2v-5h6l1-4 2-6h2l2-4 3-3 3-1 4-5v-7h6l-2-7-1-1v-5l5-5 4-13 6-11 2-7 3-9 3-5 1 2-3 28h-2l-2 18-1 13-1 8-5 18-8 26-9 11-4 5-17 17-10 8-10 9-9 7-6 3-9 6-19 7-16 2-9 6-9 2-2 4-7 6 1 4-4 2-1 5-4 2 1 3-1 2h-3l-2 5h-2l-1 3h-11l-7-1-1 5h-3v15l2 5v5l-2 2-9-1-21-6-13-4-5-3v-3l-5-2-10-5-3-2-2-7h-2v-4l-4-2-1-2-5-3-7-10-3-7 1-4 5-5 16-9 9-9 7-10 2-4v-32l-4-8-6-8-8-13-5-24-3-25-3-20-6-1 2-5 1-3v-9l-1-3-2-1 3-2v-4l-2-1 1-8 1-15 2-7h2l-1-16-2-1 1-1-2-2z" fill="#614623"/>
<path transform="translate(647,356)" d="m0 0h19l13 3 2 1h11l10 2-1 3 2 1v-2l11 1 8 3h6l6 4 5 10h2l1 3 3 2v11l2 6v15l-1 8 1 9-1 7 3 5v2l4 1 4 4 4 8 2 6 3 10-1 4 1 3 1 17 1 3 2 1 1-5 5-3-2 4-2 2-3 13-1 6h-1l-2-9-1-9h-2l-1-13-1-5-1-9-1-3h3l-2-5-6-11-3-2-2-5-4-4 1-5-3-1-2-5v-18l1-2v-14l-1-8 1-6h-2v-4h-2l-3-4v-2h-2v-2h-2l-3-3-9-2-7-2-6-1-9-2-25-6-6-1h-15l-6 3-13 1-4 2-7 1-3 3h-2v3l-4 3h-2l-2 4-7 8h-2l-2 5-7 10-2 4-1 4v19l-1 4v20l3 6v2l7 2 4 3v2l6 2 3 3 5 3 1 3h8 4l2 10v3h-2l1 7-2 14v33l-1 11-1 1-2 16-1 7 2 5 2 1v2h2v3l5 1 4 1 3 5-2 5-5 5-4 1v2l4 1 5-1 8-1 6 2 9 6 2 4 7 1 6 2 13 1 12 4 7 9 2 5 1 17v4h-3v8l1-2h4v-6l8-6-2-1 2-10 3-4 5-1-1-3 3-4 3-6 5-5 6-7 4-8 6-18 5-9 1-3h2l2-5 3-9 1-14 1-3h1l1-5h-2v-13l-2-7 3-2 2 5-1 5 7 1 1 3h2l5 10-1 7-1 8 1 3-4 5h-6l1-4v-12l-2-5h-1l-1 13-2 6v12l-2 11v16h-5l1-3 3-27-4 10-2 4-2 7-5 10-4 13-4 5h-2l2 6 1 7h-6l1 7-5 6-5 3-3 4h-2l-1 6-2 4-4 1-2-1v5h-2v8l-7 3-3 3h-4l1 8 3 2-1 5-6 2-2 3h-7l-1 6-2 5-2 1h-6v5l-7 3-1 4h-3v3l-7 2-9-3-1 3-3 2h-10l-1-2 1-5-6 2-5 1v-2l-5 1-3-3-5-4v-7l-6 2-2-4-4 1-1-3h-3v-2l-5-1-1-10-3-1-1-7v-3l2-1v-2l4-2v-4l-8-1-4-6 1-2h-6l-5-7 2-4 6-3 5 1 2 1v2l9-1 3 2 4 1 3-1 5 1 5-1v-2l-5-2-4-3v-2l7-1h26l11-2h16l1 1h8l3-2h6l8 7 5 5 2 1 3-4h2l1-11-1-7-1-3-4-2v-2l-4-2-14-3-11-1-4-3-5-2-6-5v-2l-3 1-2-1v-2l-6 2-8-2-4 1-2 15 2 1h14l1 4 4 1 1 3 5-2 14 2 6 5v3l-6 1-6-3h-14l-3-2h-9l-3-1v2l-6 2-5-7-8-3 1-4 5-3 4-1v-3l-3-9v-3l-3-1-1-5 9-2 5-5h-3v-3l-9-3-7-10-3-6v-11l2-6 3-11 1-14v-13l1-7v-24l-3-1v-2h-2l-3-11-14-7-19-5-9-4-5-2-1-3-9-1-3-2-2-9-2-11-3-5v-22l1-5 1-11 1-5 4-9 8-4 3-3 15-6 3-2 32-6 28-1z" fill="#B78751"/>
<path transform="translate(743,693)" d="m0 0 1 4 1 31 4 11 8 9 14 11 14 8 19 11v3l-3-2-6 1-7 4-3 5-12 12h-2l-4 5-9 6-11 6-5 2-16 7-28 10-21 6-10 3-20 4-8 1h-31l-29-4-17-5-13-4-3-3 10 2 9 3h6l1-1v-5l-2-5v-10l1-5h3l1-5 5-1 2 1h11l8-10v-2l4-3 1-4 3-2 1-3-2-1 9-8 1-2 11-4 7-5 16-2 21-8 10-7 5-3 14-11 10-9 6-4 7-8 5-4 4-6z" fill="#D7B17F"/>
<path transform="translate(1014,1110)" d="m0 0h1v12l-3 22-2 19-3 9-6 27-7 26-5 22-3 8-2 11-3 12-3 15-1 6v9l-2 9 1 6 1 8 2 1v5l-2 1 2 9-1 5 1 5 1 3 5-2 4-2 7-1-2-5 1-12 1-3 13-5h6l3 3v7l1 4h2l3 3 5 1 3 3v3h6l4-10 1-5 2-7 3-21 1-12 2-8 3-10 2-15 1-3 5 2 1 5 2 18-1 8 1 14 1 9-1 9 1 4-1 2h2v15 3l-24 11-33 13-33 11-30 8-3-1-1-13-2-2v-7l-4 1-2 8-1 16-15 4-30 5h-8l-3-6v-8l-3-18v-7l3-3-3-10v-6l3-4-2-23 1-12 2-4 2-1v-6l-2-7 1-7 1-1h6l2 2 1 11 3 7-1 7 6 20 1 8-1 7 2 4h2v7l4 8 2 9h2l4 6 2 7 2 1v7l5 1 1-17 1-12 3-17 4-19 2-12 5-13 2-12 1-14 1-4 1-39 4-14h3l4 6 2 7 7 10 8 1 4-9 3-11 5-18 4-16 9-30 6-21 3-8 2-8 4-14z" fill="#919A8D"/>
<path transform="translate(710,271)" d="m0 0 14 7 9 10 4 6 3 7 2 1v-19l4-1 2 1 2 2 2 8 4 11 7 18 5 10 6 23 3 12 7 19 3 13 1 11v17l-3 33-2 9-6-4v-2l-3-2v-3l-5-2-1-5h3l-2-1-1-3-3-1-1-3-5-5-2-7-1-9h-5v-8l4-1v3h2l-1-7-4-2v2l-3-1 2-4 3-4v-2l-6-2v-3h2l-2-8-3-3-4-8v-2h2l-4-4-2-5-2-1-1 2v-2l-3-1-3-2-16-3-6-1-13-2-2-5-3 2-4 1v1h-7l-2-3-7 1-2 1h-8l-10 2-12 3-14 1-9-1h-2l-10 1-9 2-15 3-17 3-3 2-10 2v2h-5l-1 2-7 3-5 3-4 6h-2l-2 5-1 3v47l-3 11-7 10 1 3-2 4h-3v-2h-1l-1 4 2 2v5l-4 9-2 12-2 8-2 9-2 7-3-2-3-18-3-6-6-29 1-3v2l4-2 2-5 2-7 1-2 7-2 5-9 6-12-1-10 2-3-1-5-3-3-1-5 3-3v-6l4-6 4-1 5-1 6-8 1-3 8-5 10-3 6-4 13-3 30-2 1-1h10l-9-11-8-11-5-7-8-7-3-4 4 2 7 6 11 4 6 6v2h2l5 6 4 7 4 4 6 2h8l-13-13-9-11-13-21-7-9 1-2 7 5 9 12 12 15v2l4 2 4 6 4 5v2h2l1 4 13-1-6-11-2-5-1-9-4-11-7-11-6-10v-3h2l4 5v2h2l9 13 7 14-1-4-8-20v-7l4 2v2l3 1 3 5 7 23 4 6 2 6-1 4-3-4v-2l-3-1-3-5-2-4h-2l2 8 3 7 1 5 5 1 6-2 5 2-2-3-3-12-5-7-3-13-1-2v-11l-2-10-4-10v-3h2l3 5v2h2l3 7 4 23 5 14-1-9-1-20-1-12 4 4 5 14 5 21 3 12 2 3 3 1v-7l-4-13-2-16-3-10-1-3 3-1 1-8 3-1 4 15 1 12 1 11 1 26h2l8-2 5 5h14l4-1v2l12 2 9-3 2-6 3-3 1-10h-2l-1-13-1-4-5-10-3-5v-3l-4-1 2 4v15l-2 16h-3l-1-24-3-5-8-9v-2h-2l-1-4 4 2 8 9 3 1-5-12-6-5-5-7zm34 19 1 5h1v-5zm1 20v6l2 1-1-7z" fill="#1C1C12"/>
<path transform="translate(776,1221)" d="m0 0 4 2 3 6 3 14h2l2 6 4 1 2-12 6 1 3 4 1 8 5 10v6l5 15v9l2 6 1 8 2 5 4 17 4 18 3 9v7l2 4 3 11 2 8v3l3 2 2 8 1 9 2 4-3 1-17 1h-43l-4-1h-6l-1-2 1-2h-2v-2h6v-5l-2-1 1-9-1-9 1-5v-8h-2l1-14h-2l-4-9-4-2v-5l4-3h3l-4-10-1-1v-6l1-3-2-10 1-5-1-8-1-3 1-7-2-8 3-9 1-2v-9l3-2 6 2 1-4-4-5v-13l1-2-2-1 1-5z" fill="#919A8D"/>
<path transform="translate(492,526)" d="m0 0h1l2 23 2 7 2 4 3 13 1 1 2 9v9h3l3 9-1 4 2 9 4 5 6 15 5 4 1 6h-3l2 8h2l1 7 2 3v3l5-1 5 8 4 2 3 5 1 7 7 1 1 5-2 7 10-2 4 4 1 2v9l5 1 3 3 3 1 1 6 5-1 2 7 5-1h4l4 7v8l-1 3 6-1 3 1v2h5l1 1 1-2h-2v-2h-2v-2l3 1v2h2v3h2l2 2 1-2 6 1 1-2 5 2 1-4h2l1-2 2 5 8 1 4-4 5 1 3 1 2-3 5-1v-2h2l2-7 1-1h5l4-7 6-1 1-5 2-5 3-2 7-1 4-2 5-8 3-1 2-5 2-4h2l2-14 6-2 3-5 4-4 2-4 4-4 2 1-1 9-2 6-3 3-2 5h-4l-3 7-5 3-2 6h-2l-1 7 3-1 6-7 3-8 4-3 4 3h-2l-1 6-6 10-4 5-11 9-5 5-7 6-8 6-3 3-7 6-8 5h-3v2l-5 2-8 3-2-1v2l-3 1-3-1-1 2h-13l-2-1-1 2-5 1-3 1-22-1-17-6v-2l-4-1-12-7-5-3-14-10v-2l-4-2-12-11-7-6-3-1-2-1v-2h-3l-4-9-7-10-8-13-5-24-3-25-3-20-6-1 2-5 1-3v-9l-1-3-2-1 3-2v-4l-2-1 1-8 1-15 2-7h2l-1-16-2-1 1-1-2-2z" fill="#1C1B11"/>
<path transform="translate(446,1178)" d="m0 0 3 2 2 6 1 2 2 13 6 4v2l4 1 3 6 2 10v8l3 1v2h3l2-10 2-13 3-8 3-7 1-1h5l2 3 1 9 2 3v5l-3 5v58l-1 23-2 1 1 8-3 9-5 3-5-1-17-11-19-13-17-13-3-6-1-8-1-3 3-9 2-4v-7l-2-9 4-6v-11l2-10 3-7h2v-9l3-5 1-7 5-3z" fill="#919A8D"/>
<path transform="translate(582,508)" d="m0 0 5 2 3 3 1 6-1 2 9 1 2 2v16l-2 3 2 1-6 17v9l-2 3-3 13-2 6 1 10 2 5 11 5 2 2v4l-3 1-3 4h-2v2l-8 2-2 1h-10-3-4v2l-7 3h-5l-2 4-4-1-2-1-1-4v-2h-2l-4-8-2-6 1-4-3-1 1-2h-2v-6l1-3-2-3v-3l-4-4 1-4-3-3v-10h-2l-1-5-1-4-2-1-2-5-1-5-1-13 6-7v-3h6l9 3 8 1 3-1 1-4 2-2v-2l6 1 6-2-8-2-4-2-1-8h2v-2h2l4 7 1 3h14z" fill="#B68651"/>
<path transform="translate(522,710)" d="m0 0 6 1v2h3l4 5 8 7 10 8v2l4 2 10 7 5 3 13 8 3 1v2l12 3 5 2 18 1v-1h9l2 2-13 3-7 2h-4l-1 4-6 2-7 4h-10l-7 2-3 1-6-3h-7l-8 4-6 5-3 6v3h-2l-4 12-4 4-1 5-2 8-3 2-7-3v-2l-5-2-10-5-3-2-2-7h-2v-4l-4-2-1-2-5-3-7-10-3-7 1-4 5-5 16-9 9-9 7-10 2-4z" fill="#624623"/>
<path transform="translate(661,1184)" d="m0 0h3v2h2l4 10 2 9 2 19 2 6v6h2v2h2l-3 12 2 8v10l2 7 3 4 1 10 1 17 2 5h2l-1 8v7l2 10-2 4 1 7v8l3 1 4 14 3 4-2 5v8l2 2 2 6v8l-1 1-12-1-33-7-2-3-2-4-1-5 2-2v3h5l1-7 2-2-1-16 1-6-2-6-1-1-1-12-3-9 2-8 2-2-2-10-3-12-2-6 1-7 1-6-1-2-1-12-2-4-1-11-3-4 1-9 5-2 3-3v-11l3-2v-19l3-11z" fill="#90998C"/>
<path transform="translate(304,931)" d="m0 0h2l2 8 3 20 1 11 1 33 1 8 1 37 1 19 1 7h4l3-10 3-8 5-16 4-14 4-8v-8l2-5 3-1 3 2 3 17 1 3v13l-3 10-2 6v4l5 2 4 9v2h5l1-2 8-4 4-6h2l1 2-1 14-1 4-1 11 3 5 5 5 4 6 2 2 2 16v5l6-3 4 2 3 4v13l-1 2h2v2h3l1 2v12l-1 12-2 5-1 13-4 3-2 6-1 5v4l-1 9-1 6v6l-1 1-3 14-3 3-4-1-1-2 4-10 1-10 3-13 2-5 2-13 1-14 2-1v-5l-5-2-4-6-5-5-1-7-1-1-2-10-7-7-1-12-2-4h-2l-2-7v-7l-6-5-3-8-2-2-2-9-1-13-2-5-2 3-4 12-4 6-4 9-3 5-3 10-2 10-4 15-2 3v6l-4 8 1 3-3 1v-2h-2v-16l1-14 2-10 2-12 6-18 4-9 12-24 4-7 2-11-3-2-2 6-10 16-4 11-7 14-4 4h-2l-2-10-1-50-3-51-3-24-2-1 1 31-1 14-1 43-2 28v43l-1 13h-2l-4-13-13-39-4-11-5-18v-8l2 4 6 19 4 13 4 11 3 8 5 15h2v-20l-2-48 1-36 2-9 2-16v-33z" fill="#919A8D"/>
<path transform="translate(483,774)" d="m0 0m-2 1 2 1-1 4 3 7 7 10 5 3 4 4v4h2l2 3v4l5 2 8 4 5 3v2l-9-2v2l-7-2-1-3h-5l-1 6 6 2 1 4-5-1-5-3-3-3-2-1v-2l-9-1 2 4 3 2v2l3 1 1 3-5-2-8-6v-2l-3-1v-2h-2v-2l-4-1v2h-3l-1 2-5 1-10 3-9 1-18 1-3 1-13 1-16 5-5 2-5 3-12 2-9 6-12 5-7 2-9 5-7 2h-4l-5 2-1 3-2-1-5 3-2 2-4 2-5 4h-4l-1 4-7 9-5 7-4 8-5 5-3 7-3 13-2 23v13l4 36 4 23v6h-2l-1-9h-2l-3-21-1-20-2-9v-4h-2l-6-7-4-9-1-7h-2l-3-4-1-10h-3l2-6 5-10 10-13 13-13 17-12 19-11 38-19 29-13 21-10 19-10 20-10 24-14 21-12z" fill="#919A8D"/>
<path transform="translate(599,476)" d="m0 0 8 3 5 3 2 7v4h2v2l4 1v24l-1 11v16l-3 16-2 3-1 5v11l6 11 5 5 7 3v3h3l-2 4-6 3h-6l2 5 2 1 4 12v3l-3 2-5 1 1-3h2l1-8-5-9v-5l9-3-9-9-4-5-2-1v-2l-4 1-6 2 1 9h-3l-5-5-2-12-1 3h-2v11l2 7h2v2l5 1 7 3-1 6-3 4h-2v2l-7 4-2 3-8 1-2-1-12 3-6 5-5 1-4 4-1 2v10l-2 4-1-3-4-1-3-7-2-2-2-5-3-5-4-3-2-4-3-3 1-1-4-3v-2h-2v-7l-3-1v-3l-3-1 1-3-3-1-1-7-3-6 4 1-1-9h2l-2-6v-4h2l-2-3v-3l-2-1-1-8 1-3h-3l-1-6-3-2v-2h-3l-3-6-2-2-1-6 1-3-1-3 2-12 3-9-1-2 2-4 4-2-4-1 2-5 5 2v-2h2v4l2 4-2 2-1 7 3 1 1 4 3-1 9 3 3 3v4h3l2 2h3l3 2v2l8-1v-3l1-6 6-2v3l10 3 2 1-1 2-7 1-4-2 1 3-3 1-1 4-4 2-15-3-2-1h-5l1 2-5 5-1 3 1 16 2 2v4l3 1 1 6 2 1h-2v2h2l1 6v5l3 3-1 3 4 4 1 5 1 2-2 8h2l1 2 2 2-1 5 5 10v2h2l1-2 1 2-1 6 6 1 2-3 9-3h3v-2l4-1h3 11l3-2h6v-2l5-5h3l-1-5-5-2-8-4-2-5-1-10 3-8 2-11 2-4v-8l6-17v-4-16l-1-1-9-2v-9l2 1v6l6 1 6 3 2 10 4-1 4 3v3h2l-1-3v-9l1-3v-21h-2l-1-5h-2l-2-13v-2l-4-1-6-3z" fill="#7D5D31"/>
<path transform="translate(1e3 1154)" d="m0 0h2v11l-8 39-5 20-4 11-2 13-1 3h-2v8l-6 23-6 30-4 18-2 16-3 17-1 9h-2v12l-3 8-12 3-1-1-1-13-2-2v-7l-4 1-2 8-1 16h-5v-32l-1-6 3-19 5-16 2-12 4-16 4-22 2-4 5 1v2h2l3 5h7l1-7 4-6h2l1-6 3-8 4-13 4-16 7-24 4-18 5-16z" fill="#58614D"/>
<path transform="translate(340,1096)" d="m0 0h1l2 8 5 5 4 9 1 4v9l-1 2 1 6-2 7-1 4 3 3v3l2 1 1 5 2 4h8l4 6 2 7 3 6 6 3v2h4v-2l4-2 3 5v11l-5 12-4 14-3 11-3 3-4-2-18-18-7-8-7-7-9-11-12-14-3-4 1-3h3v-8l2-6 4-22 3-11 2-16 4-10z" fill="#575F4B"/>
<path transform="translate(768,525)" d="m0 0 3 3-1 7 7 1 1 3h2l5 10-1 7-1 8 1 3-4 5h-6l1-4v-12l-2-5h-1l-1 13-2 6v12l-2 11v16h-5l1-3 3-27-4 10-2 4-2 7-5 10-4 13-4 5h-2l2 6 1 7h-6l1 7-5 6-5 3-3 4h-2l-1 6-2 4-4 1-2-1v5h-2v8l-7 3-3 3h-4l1 8 3 2-1 5-6 2-2 3h-7l-1 6-2 5-2 1h-6v5l-7 3-1 4h-3v3l-7 2-9-3-1 3-3 2h-10l-1-2 1-5-6 2-5 1v-2l-5 1-3-3-5-4v-7l-6 2-2-4-4 1-1-3h-3v-2l-5-1-1-10-3-1-1-7v-3l2-1v-2l4-2v-4l-8-1-4-6 1-2h-6l-5-7 2-4 6-3 5 1 2 1v2l9-1 3 2 4 1 3-1 5 1 5-1v-2l-5-2-4-3v-2l7-1 1 4v2l4-1 5 3v3l4 1 2 5h21v2h3l-1 10-10 8h-2l-1 4-3 4h-5l-5-1-4-3v-2h-7l-1 3-11 2-2-4-4 5-1 4 2 4h4l1 2h3l1-2h2l1 7h5l2 2v9l8-3 3 1 4 3 9-3 3 1v3l3 1h-2l2 3 2 1 2-5h4 8l2-3 5-3 4 1 1-4 8-4 1-1 1-8 6-5 3-4h2l-2-6 2-4h2l1-4 4-2 5-5 5-6 1-3 3-3h3l2-8-1-4 9-4h2l-2-5 2-9 4-4 2-5 5-6 4-8 6-18 5-9 1-3h2l2-5 3-9 1-14 1-3h1l1-5h-2v-13l-2-7z" fill="#B68650"/>
<path transform="translate(653,656)" d="m0 0 9 1-1 7 10-5 7-2 5 1 1 5h2v2h3v2l4 2 1 6 3 1 1 6-5 7v2l-6 3v2l3 1-1 6-4 2-2 10-3 3-7 1v3l-11 3-1 3h-3v-2h-5l-3 3h-5v-4h2l-2-4-4 6-9 3-5-4-10 3-1-5v-5l-5-1-2 1v-9h-2l-1 3-4-1v-2h-4l-3-5 3-6h2l2-4 1 5 11-2 3-3 5 1 4 4 10 1 4-7 6-4 5-4 2-10-6-1h-14l-4-1-3-5-3-1-3-5-1-3 5-1h18z" fill="#D7B07E"/>
<path transform="translate(312,1024)" d="m0 0h1l1 50 1 10 5-4 8-16 5-13 5-6 6-12 4 2-3 14-7 11-2 5-7 14-6 16-3 9-2 12-2 10-1 22-1 8h2v2l2-2-1-3 4-7v-6l2-3 4-15 3-13 3-9 3-5 3-7 5-8 4-13h3l2 5 2 18 2 5 3 5 2 5 5 5 1 13h2l3 4 1 12 7 7 2 10 1 2 1 6 2 4 4 2 3 5 5 1v6l-3 1v14l-3 17-3 9-2 12-1 4-3 9-5-2-3-4 3-3 5-18 5-15 2-4v-11l-2-4-4 1v2h-4l-1-2-5-2-2-2-2-5-2-7-3-5h-9l-2-5-3-9-3-3 1-6h2v-8l-1-4 1-1v-9l-4-12-3-4-3-2-2-7-3 5-4 10-2 16-3 11-4 22-2 6-1 8h-2l-1 2-5-4-2-5-1-10 2-25 1-14 2-7v-9l-3-11z" fill="#757F6E"/>
<path transform="translate(545,461)" d="m0 0h5l6 3 9 3 7 2 2 2 7-1 16 4 3 4 9 4 2 9v6h2l1 5h2l1 9v12l-1 5v10h-2l-1-3-4-2h-4l-2-10-11-4-1-6-8-4-5 10-1 1h-11l-3-1-5-7v-3h-2v2h-3l-1 4-1 1h-8l-1 4-5-1-1-1v-8l5-5 3-1v-2l12-4 15-1 5-3-7-2-15-4h-11l-10 3-6 4-1 2-6-1 1 6 2 1h-3l-2-1 1-5h-2l1-8 4-8h2l1-4h2l2-4 7-6 3-3z" fill="#614623"/>
<path transform="translate(743,691)" d="m0 0v3l-10 11-4 6-8 7-4 5-11 8-11 10-9 7-6 3-9 6-19 7-16 2-9 6-9 2-2 4-7 6 1 4-4 2-1 5-4 2 1 3-1 2h-3l-2 5h-2l-1 3h-11l-7-1-1 5h-3v15l2 5v5l-2 2-9-1-21-6-13-4-5-3 2-1 6 2 2-4 2-10 2-1 1-3h2l2-9 3-4 2-6 4-5 5-4 7-3h7l7 3 3-2 11-1 8-1 5-4 5-1 1-3 11-3 13-2-1-3 5-1h13l5-1h2v-2l9-2 2-2h4v-2l3-1 2-2 4-1 1-2 3-1 5-5 10-9 4-2 5-5 6-7 4-2 6-5 6-10 5-6h3v-2z" fill="#7C5D31"/>
<path transform="translate(742,694)" d="m0 0m-1 1m-1 1m-1 1 1 3-4 6h-2l-1 5-8 6-5 7-5 5-10 11-11 3v2l-3 3h-2l-1 3-5 1-1 3-9 4-7 4-6 2-7 4-3 1-1 2-8 1-1 3-9 5-6 1v11l2 1 2 6-1 5-1 7-1 4-4 8v10l3 3-1 5-6 4h-7l-5-2-7-3-3-2-1 2-2-2-5 3-1 2h-8l-18-2-6-2-8-3-1-2 10 2 9 3h6l1-1v-5l-2-5v-10l1-5h3l1-5 5-1 2 1h11l8-10v-2l4-3 1-4 3-2 1-3-2-1 9-8 1-2 11-4 7-5 16-2 21-8 10-7 5-3 14-11 10-9 6-4 7-8 5-4 4-6z" fill="#B78751"/>
<path transform="translate(240,930)" d="m0 0 3 1 1 10 2 4h2l2 7 6 12 3 2v2h2l3 13 2 30 5 28 7 30 4 17-4 2-4-8-2-10h-2l-1 4-6-24-4-21-3-43-4-9v-2l-4-2-3-2-2-4-2 6 1 9 1 5v30l2 20 3 24-1 4-7-14-10-24-9-24-3-9v-9l10-29 10-25z" fill="#59614D"/>
<path transform="translate(798,778)" d="m0 0 4 1 6 2 2 2 2 4 6 4 7 6 3 2v2h2l-2 4h-7l-5 5-5 4h-2v2l-7 4-9 5-8 5-9 5-11 3-8 5h-9l-8-1-1-1-13-1-2-1h-8l1-6 6-2 3-2 5-2 6-3 8-5 3-3h2l2-2 6-3 2-2 5-3 5-5 5-3 11-11 2-4 5-3z" fill="#FDFDFD"/>
<path transform="translate(881,1283)" d="m0 0h6l2 2 1 11 3 7-1 7 6 20 1 8-1 7 2 4h2v7l4 8 2 9h2l4 6 2 7 2 1v7l5 1 1-17h1v18l3-3v5l-9 3-30 5h-8l-3-6v-8l-3-18v-7l3-3-3-10v-6l3-4-2-23 1-12 2-4 2-1v-6l-2-7 1-7z" fill="#919A8D"/>
<path transform="translate(656,353)" d="m0 0 13 2 10 1 2-2 12 2 11 1 6 3-2 1v2l4-1 7 2v2h8v-2l5 1 12 18 3 2v13l1 1 1 13v13l-1 4 2 6h-2l-1 4-2-12 1-9v-16l-2-4v-11l-3-2v-3h-2l-4-5-2-5-5-3-9-1-10-3-6-1v2l-3-1 2-1v-2h-7l-6-1h-8l-5-2-10-2h-19l-7 3-28 1-32 6-7 4-11 4-8 6h-3l-1 5-3 7v8l-1 5v5l-1 5v17l3 6 2 10 1 9 12 3 2 3 11 4 3 3-6 1-12-6-8-2-5-2-5 1-4 1-2 4-4 2-4 4-5 3h-4v-3h2l2-6h2l-1-3h2l1-12-2-13v-10l-3-30 1-6h2l1-2-2-1 4-5 1-3 5-2 2 1v-2h6l2-3h3v-2l19-7 12-4 16-4 9-1 2-1h28l10-2 4-2z" fill="#7C5C30"/>
<path transform="translate(709,465)" d="m0 0h10l6 5 5 5 7 8 3 4v6h-8l-13-5-34 5-1 3 13 1 1 2-8 1 16 4 2-2-2-1 4-1 3 1v2l4 1 6 5 2 9-1 1h-11l-3-4v-2h-2v-2l-6-1-4 11-2 2h-11l-5-3-3-8-5 1-3 4h-3l-1 2-2-2 1-9 4-7 7-4h2v-2l-12 1-5-2-5 2-3-1 2-8-6 4-4-1-1-6 5-1 6-3 10-4 16-3 20-3z" fill="#664F2D"/>
<path transform="translate(486,498)" d="m0 0 3 4 3 17 2 4-3 6-1 1 2 2v2l1 16h-2l-2 22-1 6-1 2 3 1-1 6-1 1 2 3v9l-5 9-6-2-4-5-5-17-5-26-4-27v-20l3-8 4-4 5-1 13 2z" fill="#624624"/>
<path transform="translate(800,1282)" d="m0 0h4l4 14v3h2l2 3 2 14 1 2 1 9-1 4 3 1 1 6 1 7 3 11 3 16 1 2v10l3 3 3 8v5l1 2-1 4h-2l1 5h-24l-1-3h2l-1-5-5-1-2-10h2l-1-3 3-1-2-7h-3v-3h2l-3-14 1-6-3-9v-5l7-7-1-5-2-5 1-5h2l-4-18z" fill="#747E6D"/>
<path transform="translate(1014,1110)" d="m0 0h1v12l-3 22-2 19-3 9-6 27-7 26-5 22-3 8h-2v-4h2l2-16 5-15 6-25 6-30 1-11-2 1-4 13-5 16-5 22-7 22-3 15-3 8-5 14-3 3-3 6-1 4-7 1-3-4v-2h-2l-1-2-4-1-3 13-4 23-3 9-2 12-4 13-3 19 1 9-1 29 3 1h-4l-1-4-2 3-1-1 1-30 3-17 4-19 2-12 5-13 2-12 1-14 1-4 1-39 4-14h3l4 6 2 7 7 10 8 1 4-9 3-11 5-18 4-16 9-30 6-21 3-8 2-8 4-14z" fill="#919A8D"/>
<path transform="translate(1e3 1154)" d="m0 0h2v11l-8 39-5 20-3 4v-8l-4 10-3 15-3 11-2 8-5 13-5 18-3 10-7 11-3 5-1 6v9l1 5-2 9h-3l1 10-4-1-3-3-2-7v-3l-1-3-1-26-2-1-1 2 6-27 3-17 2-4 5 1v2h2l3 5h7l1-7 4-6h2l1-6 3-8 4-13 4-16 7-24 4-18 5-16z" fill="#626B59"/>
<path transform="translate(581,1279)" d="m0 0 5 2 3 3 3 8v6l-3 5v5l3 4 2 18 1 21-1 5 1 8-1 9h-2v2l-8-1-21-8-5-6 1-16-1-11h2l2-5 1-7 2-3h3l1 8h2v2h2v2l5-2-1-13-1-4-1-22v-6l2-3z" fill="#919A8D"/>
<path transform="translate(691,347)" d="m0 0 2 2v4h8l9 1 5 2 16 3 3 2 4 2 2 5 3 2v2h-2l4 7v2l2 1-1 1 3 2 1 8h-2l2 3 5 2-2 4-3 4v2l2 1v-2l5 2v7h-2v-3l-3 1-1 8h5l3 13 3 6 3 2v3l4 1v3l3 1-3 1v4l5 2 1 3 8 8-1 9-5 20-4 4h-2l-1 5-3-1-2-13v-9l-1-3 1-3-3-9-5-12-2-4-6-3-4-7 1-4h2v-4h2l-3-7 1-6v-11l-1-12-1-4v-8l1-2-4-2-6-9-5-8-5-2v2h-8v-2h-6l-5-1 1-3-5-2-17-2-6-1-2 2-10-1-13-2-10 2-4 2-8 1h-28l-2 1-14 2-11 3-1-3 8-3 13-2 15-3 3 1 11 1 12-2 8-2 12-2h6l4-2h5l2 4 6-1 1-2 5-1z" fill="#5F4422"/>
<path transform="translate(620,611)" d="m0 0h10l-3 1v2l4 1 5-1 8-1 6 2 9 6 2 4 7 1 6 2 13 1 12 4 7 9 2 5 1 17v4h-3v8l1-2h4v-6l8-6-2-1 2-10 3-4 5-1-1-3 3-4 3-6 5-3-2 4-2 2-2 9 1 5-5 3-6 1 2 6-3 7-3-1-1 3h-2l-1 4-5 6-3 2-2 4v-2l-4 3-1 3h-2l-1 6 2 2-1 3-3 1-5 6-2 1-1 8-3 3-7 3-1 3h-7l-1 3-3 3h-8-4l-2 4h-4l-1-5-1-3-2-2 5-5 1 5h-2v4l6-2 3-2 4 1v2h3l-1-3 9-3h4v-3l8-3 1-1 2-10 5-2v-6l-3-3 5-4 2 1-1-3 5-6-1-6-2-1-3-7-2-1v-2h-3v-2h-2l-2-5-7 1-9 3-6 4-1-2h2l1-7h-9l-11 3h-23l2 4-7-1-1-3 2-3h24l11-2h16l1 1h8l3-2h6l8 7 5 5 2 1 3-4h2l1-11-1-7-1-3-4-2v-2l-4-2-14-3-11-1-4-3-5-2-6-5v-2l-3 1-2-1v-2l-6 2-8-2-4 1-2 15 2 1h14l1 4 4 1 1 3 5-2 14 2 6 5v3l-6 1-6-3h-14l-3-2h-9l-3-1v2l-6 2-5-7-8-3 1-4 5-3 4-1v-3l-3-9v-3l-3-1z" fill="#BA8A54"/>
<path transform="translate(636,617)" d="m0 0 10 2 4-1v2h5v2l4 2 3 3 7 3 1 1 11 1 14 3 10 10 1 9-2 9-3 2-2 3-5-3-7-8-3-2h-6l-3 2h-8l-1-1h-16l-14 2h-11v-1l14-2 2-3h-10l-6-5-3-3-4-1-3 2-7 4-7-1-3 3-7 1v-4l6-3 6-1 9-5 5-2v3l9 3 4 6 6-1v-2h12l5 2h12l6 3h6l-2-4-4-3-9-2h-5l-5 1-2-3-3-1-1-3h-14l-3-3 2-14z" fill="#7D5D31"/>
<path transform="translate(317,860)" d="m0 0 2 1-3 6-2-1-5 3-2 2-4 2-5 4h-4l-1 4-7 9-5 7-4 8-5 5-3 7-3 13-2 23v13l4 36 4 23v6h-2l-1-9h-2l-3-21-1-20-2-9v-4h-2l-6-7-4-9-1-7h-2l-3-4-1-10h-3l2-6 5-10 10-13 13-13 17-12 19-11z" fill="#929B8E"/>
<path transform="translate(582,508)" d="m0 0 5 2 2 2v5l-6 5-1 2 5-1 5 1h6l-1 4-1 2h-2v9l-5 9h-2l-1 8-3 7-3 1v6l-4 7-4 1-1 3-6-1-3-3-1-7-8-5-2-4 1-4h2v-5h-2l-1-5 2-5v-2h2l2-5 4-1 1-5h4l5-2v-2l3-3h2l2-4z" fill="#D7B07E"/>
<path transform="translate(553,535)" d="m0 0 4 2-2 3h-2l1 4-2 5v3h2v5l-2 1v5l5 4 5 3 1 7 4 3h4l3-3h2l1-4 2-3 1-6 3-2 4-14h2l1-4 2-2-1 8-3 8-2 11-1 8 1 6-1 4h-2l-1 9-1 4 3 5 2 2 2 3-2 4-4 1-4-2-2 5-4 2-5-1-1-6-3-3v-3l-4-1-2-7v-3-3l-4-3-1-5-2-6h-3l-4-12-3-7-2-6-4-7 6-1 3 1v-6l4-2h3l1-3z" fill="#C69660"/>
<path transform="translate(545,461)" d="m0 0h5l6 3 9 3 7 2 2 2 10 2 3 1v2l4-1 2 2h4l5 5v9l-2 2h-15l-19-4-7-1h-16l-10 3-6 4-1 2-6-1 1 6 2 1h-3l-2-1 1-5h-2l1-8 4-8h2l1-4h2l2-4 7-6 3-3z" fill="#030302"/>
<path transform="translate(250,981)" d="m0 0 4 2 2 10 2 30 4 28 7 25 5 21 5 17 3 9 1 5-3-3-8-13-14-25-11-21-1-23-2-15v-22l2-2 2 1v2h2l-1-5v-9l-1-9z" fill="#B8C1B4"/>
<path transform="translate(752,312)" d="m0 0 4 4 4 7-2 4 1 8-1 5-1 9h2l2-8h2l4 10 1 11 4 7v2h2l3 4v2l-3 2 4 6v2l2 1-1 3 3 9v3h-3l1 6-3 3-3-6-5-2-1-5-3-9-4-1-1-4h-3l-5-4-1-2h-3l-1-5 1-1-1-5-3-3-2-9h-3l2-5 6-9 2-6 1-7v-11h2z" fill="#030302"/>
<path transform="translate(608,655)" d="m0 0 17 1v1l-17 1h-2v2l4 2 5 3v2l-7 2-5-1h-3l-4-1-5-1h-5v-2l-7-1-7 4 1 4 2 2 1 2 6 1 1 4 2 3 8 2 1 4-2 2h-3v4l-1 7 3 3 2 10 8 3v3l5-2 2 4 5-1 1 7 7 5v2l5-1v2l5-2 6-1v6l3 2-3 3-7 3h-5l-1-1v-8l-6 2-4-5-3 3h-3v-5h2l-2-3-5-3-5-5-5 3-3-7-2-6-5 1-2-2v-4l-5-1-1-6 2-5-5-2v-3l-5-1-1-2 1-2-5-1v-7l-5 2-2 1v-5h-2l2-4 11-1 1-5 3-5 5-5 7 1 9 4 9 3-1-5z" fill="#7D5D31"/>
<path transform="translate(349,1071)" d="m0 0 2 1 1 8-2 12-2 7 3 5 2 1 4 11 2 6v16l2 6 3 3 1 9h5l4-1 3 5 2 10-1 4 3 9h5l1-5h4l3 11v11l-2 9-3 9-5 18-1 1-1 10-4-2-2-3 3-3 5-18 5-15 2-4v-11l-2-4-4 1v2h-4l-1-2-5-2-2-2-2-5-2-7-3-5h-9l-2-5-3-9-3-3 1-6h2v-8l-1-4 1-1v-9l-4-12-3-4-3-2-2-7-3 5-4 10-2 16-3 11-4 22-2 6-1 8h-2l-1 2-2-1v-8l3-3 2-9 1-4 2-6 1-10 3-8 4-20 3-7 3-6 2-5 6-10z" fill="#616A58"/>
<path transform="translate(461,1251)" d="m0 0 3 4 4 9 3 12 7-1 2 2-2 21-2 16-1 4-5-1-15-10-11-8v-9l2-14 1-2 5-2v-10l1-8 2-2z" fill="#757F6E"/>
<path transform="translate(616,364)" d="m0 0h15l-1 2-10 2-3 3h-2v3l-4 3h-2l-2 4-7 8h-2l-2 5-7 10-2 4-1 4v19l-1 4v20l3 6v2l7 2 4 3v2l6 2 2 3-5-1-13-5-1-3h-4v-5l-6-2-3-6-1-10 1-4 1-11 1-12-2-6v-10l2-8h2l1-4 5-5 1-6 3-2 6-2 6-5h3l1-2 10 1z" fill="#C69660"/>
<path transform="translate(766,578)" d="m0 0 1 2-3 28h-2l-1 9-2-4 1-6-3 1-2 7v10h-2v5 3l1 3-2 8h-2v2l-3 3-4 2-2 3-2 6-6-1-1 7h-2l-2 4-3 1-1 4-4 2-3 13-3 3-2 6-3 5-1 3h-2l-1 4-13 2-2 5-2 8-7-2-1 4-3 3-4 2-3 7-13 3-2 2h-3v2l-4 1-4-2v-4l-4-2h7l4-4h5l5 2 6-1v-3h3l1-5 7-2v-5l8-1 1-5 2-6 7-1 3-4 5-1 1-4-4-2v-8l5-2 5-4h3v-6l1-2h2v-5h6l1-4 2-6h2l2-4 3-3 3-1 4-5v-7h6l-2-7-1-1v-5l5-5 4-13 6-11 2-7 3-9z" fill="#7D5D31"/>
<path transform="translate(304,931)" d="m0 0h2l2 8 3 20 1 11 1 33 1 8 1 26-1 10h-1l-3-61-3-32-1-5-2-1 1 31-1 14-1 43-2 28v43l-1 13h-2l-4-13-13-39-4-11-5-18v-8l2 4 6 19 4 13 4 11 3 8 5 15h2v-20l-2-48 1-36 2-9 2-16v-33z" fill="#90998C"/>
<path transform="translate(543,701)" d="m0 0 4 4 3 1v2l5 1 1 7 6 3 1 4 6-3 6 1 3 5v2h3l1 8 4 1 3-3 3 1 1 4 4 8 3 1 1 4 3 1 3 3 4 1v-2l5-1 1 2 8 1 1 2-7 3h-11l-17-7-8-5-14-8-5-5-5-2-5-5-5-3-1-6-4-1-2-8-2-1v-6z" fill="#030302"/>
<path transform="translate(653,656)" d="m0 0 9 1-1 7h-2v5l-3 3v3h2l1 3-3 1-2 8h-2v2h-2v3l-5 2-7 8-3 1-1 4-5-2v-3l-4 1-5-3v-2h-3l1 4-4 1-1 4 1 3-2 4v2h6l3-3 4 1-3 5-1 4-2 2 4-4 6 1 1 3 2 1v2l6-3h3v2l-9 3-5-4-10 3-1-5v-5l-5-1-2 1v-9h-2l-1 3-4-1v-2h-4l-3-5 3-6h2l2-4 1 5 11-2 3-3 5 1 4 4 10 1 4-7 6-4 5-4 2-10-6-1h-14l-4-1-3-5-3-1-3-5-1-3 5-1h18z" fill="#C69660"/>
<path transform="translate(308,984)" d="m0 0h1l2 27 1 85 1 11-1 25-2 1-2 7h-3l-1-2v-38h-1v-45l1-12 1-45 2-12z" fill="#575F4B"/>
<path transform="translate(633,1309)" d="m0 0 3 1v10l1 3v9l3 4 3 15-1 17v12h2l2 5-2 6h-7l-15-4 2-5-2-8 3-9 1-2v-7l-1-7 3-3 2-7 1-1v-17l1-11z" fill="#919A8D"/>
<path transform="translate(658,763)" d="m0 0 3 1-5 4-3 2h-3l-1 2-8 1-1 3-9 5-6 1v11l2 1 2 6-1 5-1 7-1 4-4 8v10l3 3-1 5-6 4h-7l-5-2-7-3-3-2-1 2-2-2-5 3-1 2h-8l4-2 3-9 5-2 7 3 1 3h3v-2l7-3 2-16 3-6h2l1-6 2-5h2v-2l-2-1-1-10 2-4h2v-3h3v-2l10-2 3-1 1-3 6-5 9-1z" fill="#C69660"/>
<path transform="translate(312,1024)" d="m0 0h1l1 50 1 10 5-4 8-16 5-13 5-6 6-12 4 2-3 14-7 11-2 5-7 14-6 16-3 9-2 12-2 10-1 22-1 8h2v2l2-2-1-3 4-7v-6l4-4v10l-3 7-1 7-2 6-2 2-1 7-5-5-1-12 2-25 1-14 2-7v-9l-3-11z" fill="#747E6D"/>
<path transform="translate(612,615)" d="m0 0 6 3 1 5 2 2-1 2h-3v7l-6 5-16 4-7 5-15 6-6 7-6 3-3-6-1-5 2-6h2l2-4 9-7 16-2 6-3 5-4h2v-2l4-2 3-6z" fill="#1B1B11"/>
<path transform="translate(707,470)" d="m0 0 4 1 4 2h4v-2h3v2l5 2 6 5v2h2l3 8-13-2-8-3-5 1-2-2 1 3h-8l-7 2-17 2-7-1-2-4h-2l-2 4-1-4-4-1-1-5 6-3 9-1h10v-1l14-1 2 1 1-2h3v-2z" fill="#1B1B11"/>
<path transform="translate(643,472)" d="m0 0 6 2v2l10-2 5 2-16 8h-4l1 6 4-1 5-3 1 2-3 7 7-1 2-1 5 2h11v2l-9 5-2 6h-2l1 3-1 6h2l3-1 5-5 4 1 3 8 4 2 10 1-2 1-1 4h-5v2h-15l-10-6-2-1-2-9h-5l-1-5 2-7-9-4v-2l-4-2-2-4v-14z" fill="#B78751"/>
<path transform="translate(262,898)" d="m0 0h3v2l4-1-2 7-1 12-2 23-3 12h-2l-2-13-4-2v2h-2v7l4 13v2l4 1v-2h2l3 14v6h-1l-2-9v-4h-2l-6-7-4-9-1-7h-2l-3-4-1-10h-3l2-6 5-10 8-11 5-3z" fill="#76806F"/>
<path transform="translate(1e3 1154)" d="m0 0h2v11l-8 39h-1v-7l2-9v-6l-3 7-2 10-7 24-3 12-3 11-5 17-6 17-5 12-3 3h-6l-3-3v-2l-8-1-2 14-2 2 3-22 3-11 1-2 5 1v2h2l3 5h7l1-7 4-6h2l1-6 3-8 4-13 4-16 7-24 4-18 5-16z" fill="#757F6E"/>
<path transform="translate(746,439)" d="m0 0 2 1 1 3 6-1v3l2 7 4 1v-3l5 2v2h2l1-2v4l5 2 1 3 8 8-1 9-5 20-4 4h-2l-1 5-3-1-2-13v-9l-1-3 1-3-3-9-5-12-2-4-6-3-4-7z" fill="#626B59"/>
<path transform="translate(651,624)" d="m0 0 6 2 3 3 9 4 12 2 12 3 11 10v10l-4 6-4-1v-3l-4-2-6-4h-9l-4 2-4-1-2-1v-2h12l-1-6-5-3-8-1-4-4-8 1-3-2-3-9v-3z" fill="#614522"/>
<path transform="translate(250,981)" d="m0 0 4 2 2 10 2 30 4 28 7 25 5 21 5 17 3 9 1 5-3-3-4-6-2-10-2-8v-4h-2l-6-25-3-9-3-16-4-28-2-1 1 6h-5l1 7v12l1 8v16l-3-1-1-23-2-15v-22l2-2 2 1v2h2l-1-5v-9l-1-9z" fill="#90998C"/>
<path transform="translate(717,487)" d="m0 0 10 3 7 2 6 1v-6l2 4-1 4 2 1-1 5-7-1-5-2v-2l-3 1-6-4h-6v2l2 1 1 3h-3v2l5 1 6 4 4 6 1 1v8l-14 3-7 3-6 1-3-2 7-9 1-2h2l2 3h11v-4l-2-1h2l-3-5-5-4-3-1v-2h-5l-1 4-15-3-3-2 1-1 7-1-13-2-1-3 8-2z" fill="#B88852"/>
<path transform="translate(335,1120)" d="m0 0h1l2 8 2 20 1 2v21l-6 27-5-4-7-9 2-10 2-7 2-15 1-2v-10l2-5z" fill="#1B1B11"/>
<path transform="translate(601,672)" d="m0 0h5l2 2h12l7 1v2l8-1 8 1v2l4-1-1 6-2 3h-2l-1 4-3 3-2 5h-5l-6-3v-2l-10-2-2-4-10-6v-2l-4-2z" fill="#7D5D31"/>
<path transform="translate(736,630)" d="m0 0v3l-3 3-2 9 1 5-5 3-6 1 2 6-3 7-3-1-1 3h-2l-1 4-5 6-3 2-2 4v-2l-4 3-1 3h-2l-1 6 2 2-1 3-3 1-5 6-2 1-1 8-3 3-7 3-1 3h-7l-1 3-3 3h-8-4l-2 4h-4l-1-5-1-3-2-2 5-5 1 5h-2v4l6-2 3-2 4 1v2h3l-1-3 9-3h4v-3l8-3 1-1 2-10 5-2v-6l-3-3 5-4 2 1-1-3 5-6-1-6-2-1-3-7-2-1v-2h-3v-2h-2l-2-5-4-2h5l4 5 5 5 4 3 2 5h3v-2h3l2-10v-17l2 2 1 17v4h-3v8l1-2h4v-6l8-6-2-1 2-10 3-4 5-1-1-3 3-4 3-6z" fill="#C69660"/>
<path transform="translate(304,948)" d="m0 0 3 1 3 24 1 15v23h-1l-2-25-2 12-1 45-1 12-1 50-1 19-1 6h-2l-5-16v-2l-3-1-2-7-2-11-3-8-2-10-2-9 2 2 8 24 4 14 3 7 1 7 1-2 1-11v-44l2-32 1-38 1-22z" fill="#757F6E"/>
<path transform="translate(556,498)" d="m0 0h7l2 1 9 1 6 6-3 1-5-1 2 5h5l1-3h1l-1 7-3 5h-11l-3-1-5-7v-3h-2v2h-3l-1 4-1 1h-8l-1 4-5-1-1-1v-8l5-5 3-1v-2z" fill="#090905"/>
<path transform="translate(691,275)" d="m0 0 6 5 5 3 8 11 3 6 1 4v19l-2 16-3 1 1-19-2-20-2-7-5-2 2 15v16h-3l-1-13-3-11v-6h-3l3 9 2 18 2 5v4h-4l-4-14-5-24-2-7 5 5 3-1-1-4-2-2h2z" fill="#1B1B11"/>
<path transform="translate(243,966)" d="m0 0 2 1 1 4 6 4 4 8 1 6 3 40 7 34 7 26 3 12 2 4 5 20v5l-2-4-3-9-3-10-6-23-5-18-5-21-3-22-2-33-2-7-3-1-1 2 1 10v13h-2v-2l-3 1v23l2 14v12h-1l-3-24-1-14v-34l-2-6 1-9z" fill="#757F6E"/>
<path transform="translate(483,774)" d="m0 0m-2 1 2 1-1 4 3 7 7 10 5 3 4 4v4h2l2 5-3-2v-2l-3-1-7-8-6-7h-2l1 6h-3l-1 4-5 1-4-3v-2l-3-1v-3h-7v2h-2l-1 3h-2l-2 4h-3l-4-1v-2l-6-1 4-4 19-11 15-9z" fill="#767F6F"/>
<path transform="translate(656,353)" d="m0 0 13 2 10 1 2-2 12 2 11 1 6 3-2 1v2l4-1 7 2v2h8v-2l5 1 12 18 3 2v13l1 1 1 13v13l-1 4 2 6h-2l-1 4-2-12 1-9v-16l-2-4v-11l-3-2v-3h-2l-4-5-2-5-5-3-9-1-10-3-6-1v2l-3-1 2-1v-2h-7l-6-1h-8l-5-2-10-2h-19l-7 3-28 1-26 5h-6l3-3 12-3 9-1 2-1h28l10-2 4-2z" fill="#7D5D31"/>
<path transform="translate(710,271)" d="m0 0 14 7 9 10 4 6 3 7 2 1v-19l4-1 2 1 2 2v6l-6-1 3 3 1 6v7l-2 4-1 5-4-2-5-10-3-5v-3l-4-1 2 4v15l-2 16h-3l-1-24-3-5-8-9v-2h-2l-1-4 4 2 8 9 3 1-5-12-6-5-5-7z" fill="#1E1E14"/>
<path transform="translate(679,498)" d="m0 0h7l-1 2 9 3 16 5 6 5v2l-8-2v-2l-6-1-4 11-2 2h-11l-5-3-3-8-9 1-1-4 5-8z" fill="#624623"/>
<path transform="translate(658,478)" d="m0 0 2 1-2 4 1 3h-2l-1 7 7-2 6 2 16-1-1 4 13 1 1 2-8 1 16 4 2-2-2-1 4-1 3 1v2l4 1 6 5 2 9-1 1h-11l-3-4v-2l6 2-5-5-10-4-11-3-6-2 1-2-9 1-5 3-3 6v3l3 2-2 3h-3l-1 2-2-2 1-9 4-7 7-4h2v-2l-12 1-5-2-5 2-3-1 2-8-6 4-4-1-1-6 5-1 6-3z" fill="#7C5D31"/>
<path transform="translate(259,975)" d="m0 0 2 3 2 7 4 31 4 23 7 30 4 17-4 2-4-8-4-14-5-26-5-36-2-20-1-8z" fill="#1B1B11"/>
<path transform="translate(653,656)" d="m0 0 9 1-1 7h-2v2h-2v2l-4 4-8 1h-16l-3-4-3-1-3-5-1-3 5-1h18z" fill="#D8B17F"/>
<path transform="translate(792,500)" d="m0 0 3 1 2 7v33l-2 15h-1l-1-11-5-2-2-6 2-2-2-5-2-7-3-4 2-6 6-7 2-3 1 2z" fill="#B88852"/>
<path transform="translate(615,637)" d="m0 0h2v3l9 3 4 6 6-1v-2h12l5 2h12l6 3-4 1v2l6 2v1h-6l-1-1h-16l-14 2h-11v-1l14-2 2-3h-10l-6-5-3-3-4-1-3 2-7 4-7-1-3 3-7 1v-4l6-3 6-1 9-5z" fill="#7A5A2F"/>
<path transform="translate(545,461)" d="m0 0h5l6 3 9 3 7 2 2 2 10 2 3 1v2l4-1 2 2h4l5 5v9l-2 2h-15l-13-3v-1h9l6 1 6-2 1-3-2-1-2-5-14-1-5-3-14-3-5-3v-2h-6l-1-3-6 4-2-1 2-3z" fill="#1B1B11"/>
<path transform="translate(617,642)" d="m0 0 5 1 5 5 4 3 10 1-2 4-6 1-25-1-4 1h-8v2h-7l-5-3v-2l12-1v-2l4-1 1-3 7 1 9-5z" fill="#624623"/>
<path transform="translate(752,407)" d="m0 0 5 2v7h-2v-3l-3 1-1 8h5l3 13 3 6 3 2v3l4 1v3l3 1-2 1-2-1v3h-2l-2-2-1-2h-2l1 4-6-2-2-7v-2l-5 1-2-5 1-4h2l-3-7 1-6v-10l2-3h2z" fill="#634926"/>
<path transform="translate(768,525)" d="m0 0 3 3-1 7 7 1 1 3h2l5 10-1 7-1 8 1 3-4 5h-6l1-4v-12l-2-5h-1l-1 13h-1l-1-12 1-5h-2v-13l-2-7zm-1 27 2 3h-2z" fill="#C5955F"/>
<path transform="translate(697,353)" d="m0 0 13 1 5 2 16 3 3 2 4 2 2 5 3 2v2h-2l4 7v2l2 1-1 1 3 2 1 8h-2l2 3 5 2-2 4-3 4-1 5h-1l-1-12-1-4v-8l1-2-4-2-6-9-5-8-5-2v2h-8v-2h-6l-5-1 1-3-7-3-2-2z" fill="#604522"/>
<path transform="translate(265,924)" d="m0 0h1l-1 21-1 8v13l4 36 4 23v6h-2l-1-9h-2l-3-21-1-26-2-14h-2v2l-4-1-4-10-1-8 1-4h2v-2l5 2 1 10v3h2l1-9 1-3 1-13z" fill="#919A8D"/>
<path transform="translate(236,991)" d="m0 0 2 2 5 45 1 14 1 1v5l-3-3-10-23v-11l1-14 2-15z" fill="#1F1F15"/>
<path transform="translate(745,445)" d="m0 0h2l2 5 4 1 4 4 4 8 2 6 3 10-1 4 1 3 1 17 1 3 2 1 1-5 5-3-2 4-2 2-3 13-1 6h-1l-2-9-1-9h-2l-1-13-1-5-1-9-1-3h3l-2-5-6-11-3-2-2-5-4-4z" fill="#BA8A54"/>
<path transform="translate(717,487)" d="m0 0 10 3 7 2 6 1v-6l2 4-1 4 2 1-1 5-7-1-5-2v-2l-3 1-3-2v-3l-11-1-5 1-12 1 3 2 10 2 4 4h-5l-1 4-15-3-3-2 1-1 7-1-13-2-1-3 8-2z" fill="#BA8A54"/>
<path transform="translate(554,488)" d="m0 0 9 1 12 3 2 3-6 3h-17l-12 4-6 3-8 2v2l-2-1 4-6h2l1-4 5-4 5-3z" fill="#7D5D31"/>
<path transform="translate(468,508)" d="m0 0 4 1 3 3 2 1 1 4-10 19-2 9-2 2-3-15v-20l2-2z" fill="#1E1E13"/>
<path transform="translate(768,452)" d="m0 0 1 4 5 2 1 3 8 8-1 9-5 18h-2l-1-4h-2l-1-6v-8-2-4h3l-2-2-4-3 1-4-3-1-4-4h-2v-2h7z" fill="#575E4A"/>
<path transform="translate(643,635)" d="m0 0 4 1v3l4 1 1 3 5-2 14 2 6 5v3l-6 1-6-3h-14l-3-2h-9l-3-1v2l-6 2-5-7-8-3 1-4 2 1v2l9 3 5 1h10l-1-5-6 1-3-1v-2z" fill="#B88852"/>
<path transform="translate(937,1329)" d="m0 0 2 2 1 26-2 7-3-1v10l-2 6v4h-2l2 6v7l-4 1v-19l2-15 1-5h-2l2-13z" fill="#1B1B11"/>
<path transform="translate(745,671)" d="m0 0 3 1 1 6-4 13-5 1v2l-5 2 1-5-3-2-3 3-3 8-3 4h-2l-1 3h-3l1-7h2l2-7 5-3 3-7h4l3-7h2l1-4v2h3z" fill="#585D48"/>
<path transform="translate(812,1373)" d="m0 0 4 1 1 4 4 1 2 6 1 4 1 14 2 8h-11v-10l-2-2v-10l-2-6 1-5h-2z" fill="#616A58"/>
<path transform="translate(742,694)" d="m0 0m-1 1m-1 1m-1 1 1 3-4 6h-2l-1 5-8 6-5 7-5 5-10 11-11 3v2l-3 3h-2l-1 3-5 1-1 3-9 4-7 4h-5l4-2 5-3 4-4 9-6 5-3 14-11 10-9 6-4 7-8 5-4 4-6z" fill="#BB8B55"/>
<path transform="translate(623,480)" d="m0 0 3 1 2 10v3h-2l1 7-2 14v33l-1 11-1 1-2 16-1 7 2 5 2 1v2h2v3l-4-2-5-9v-7l3-16 1-7v-29l1-3v-10l2-16 1-7-2-1-4-1-3-1v-2h-2v-2h8z" fill="#C69660"/>
<path transform="translate(308,1057)" d="m0 0h2v75l-1 7-4 2-1-3 1-39 1-5v-16l1-17z" fill="#1B1B11"/>
<path transform="translate(743,691)" d="m0 0v3l-10 11-4 6-8 7-4 5-11 8-11 10-9 7-6 3-9 6-16 6-21 1-1-2 5-1h13l5-1h2v-2l9-2 2-2h4v-2l3-1 2-2 4-1 1-2 3-1 5-5 10-9 4-2 5-5 6-7 4-2 6-5 6-10 5-6h3v-2z" fill="#6F512A"/>
<path transform="translate(484,532)" d="m0 0h3l1 5-3 11-3 5-1 6 3 5v8l-4 1-3-5-2-2-1-5-2-1v-2l2-1 2-15 3-4h2l2-4z" fill="#1B1B11"/>
<path transform="translate(974,1293)" d="m0 0 1 4-6 27-3 20-3 22-1 6h-2v12l-3 8-4 1-1-5 6-26 6-24 5-25z" fill="#757F6E"/>
<path transform="translate(706,709)" d="m0 0v3l-4 2-7 1-3 1-1 5-2 6-6 2-2 2-2 4h-5l-3 7h-2v2l-5 2-2 3-6-2-8 4-7-2-2-3h-2v6l-2-2-5-2 3-3h4l1-3 4-1 2 1 1 4 7 1v-2l5-3 13-3 3-7 6-2 2-6 5 1 2 1v-6l4-7 9-2z" fill="#614623"/>
<path transform="translate(522,710)" d="m0 0 1 3 4 2 1 4-4 5v7l3 1 2 10-3 11-3 1-1 2-4 1-2-3-1-2-2 1 2-4 6-10z" fill="#7B5D34"/>
<path transform="translate(688,503)" d="m0 0h7l7 3v2l-6 1-5-2 1 4 6 1-3 9-8 1-4-2-1-6h-2l-1-8 2-2z" fill="#050503"/>
<path transform="translate(582,508)" d="m0 0 5 2 2 2v5l-6 5-1 2 5-1 5 1 4 1-7 1-1 2h-3l-4 1-2-4h-3l-1 2h4l1 4h-7l-3 2-7 1-2 2-4-1 4-1 1-5h4l5-2v-2l3-3h2l2-4z" fill="#C69660"/>
<path transform="translate(311,1011)" d="m0 0h1l1 81 3 11v9l-2 7-2 31-1 9 1 10h-2l-6-9 3-7 2-1 2-20 1-28-1-8z" fill="#636C5A"/>
<path transform="translate(620,679)" d="m0 0 20 1 1 5-7 12-5-2-2-1v-6h-7l-3-2 1-6z" fill="#5D4321"/>
<path transform="translate(676,282)" d="m0 0h2l4 15 1 12v11l-2 4-2-3v-5h-2l-1-2-2-12-3-10 3-1 1-8z" fill="#212217"/>
<path transform="translate(462,1277)" d="m0 0 2 1-1 2h2l2 9 2 5 1 4v15l1 3-5-2-6-4-1-7 3-2-1-6 1-1-1-16z" fill="#626B59"/>
<path transform="translate(715,363)" d="m0 0 4 1v2h8v-2l5 1 12 18 3 2v13l1 1 1 13v13l-1 4 2 6h-2l-1 4-2-12 1-9v-16l-2-4v-11l-3-2v-3h-2l-4-5-2-5-5-3-9-1-5-2z" fill="#7D5D31"/>
<path transform="translate(708,500)" d="m0 0 5 1v2l4 1 6 5 2 9-1 1h-11l-3-4v-2l6 2-5-5-10-4-11-3v-2l17 3 1-2-2-1z" fill="#77582D"/>
<path transform="translate(746,439)" d="m0 0 2 1 1 3 6-1v3l2 7 4 1v-3l5 2 1 4h-7v2l3-1 4 5 2 1 1 5 4 2v2l-6 1-7-5-3-9-3-6-6-3-4-7z" fill="#656852"/>
<path transform="translate(691,347)" d="m0 0 2 2v4l10 2-1 2h-9l-12-2-2 2-10-1-9-1-1-3 11-4h5l2 4 6-1 1-2 5-1z" fill="#5A4121"/>
<path transform="translate(341,1069)" d="m0 0 3 1-1 5-3 7-4 7-7 16-3 1-1-1 1-10 3-5 3-7 2-5 3-5z" fill="#B8C1B4"/>
<path transform="translate(585,499)" d="m0 0 8 1 11 6v2l7 1 1 5v6l-4-1-4-6-9-5-4-1 1 3-5-1-5-3v-2h3l-3-3h3z" fill="#1C1B11"/>
<path transform="translate(556,498)" d="m0 0h7l2 1 9 1v1l-16 1-4 3h-4v2l-6 2v2l-3 1v4l1-1h9v1h-8l-1 4-5-1-1-1v-8l5-5 3-1v-2z" fill="#1B1B11"/>
<path transform="translate(308,984)" d="m0 0h1l1 10v14l-1-4h-2v33l-1 19-1 6-1 37h-1v-44l1-12 1-45 2-12z" fill="#626B59"/>
<path transform="translate(271,1077)" d="m0 0 2 4 4 13 5 14 4 4 1 6 3 6 1 10-4 2-3-4-3-16-3-9-1-5-2-3-4-17z" fill="#626B59"/>
<path transform="translate(678,654)" d="m0 0m-28 1h16l1 1h8l3-1v3l-12 4-6 4-1-2h2l1-7h-9l-11 3h-23l2 4-7-1-1-3 2-3h24z" fill="#B88852"/>
<path transform="translate(643,276)" d="m0 0h2l3 5v2h2l3 7 4 23 3 11-5-5-1-6-2 4-3-7v-11l-2-10-4-10z" fill="#1B1B11"/>
<path transform="translate(664,476)" d="m0 0h9l-2 2h-5l-3 2h-3v2l2 1v2l3 1 2 2 1-2-5-1v-1l7 1 2 4 8 1 5-1h7l-1 3-22 2-8-2-5 1 1-7h2l-2-4h2l1-5z" fill="#634825"/>
<path transform="translate(768,525)" d="m0 0 3 3-1 7 7 1 1 3h2l1 2v11l1 3-1 2h-2l-1-6-2-2-6-1-2-1v-13l-2-7z" fill="#B1834E"/>
<path transform="translate(280,1066)" d="m0 0 2 2 8 24 4 14 3 7 1 7 1-2 1-10 2-1v17l-1 6h-2l-5-16v-2l-3-1-2-7-2-11-3-8-2-10z" fill="#757F6E"/>
<path transform="translate(624,314)" d="m0 0 3 1 5 9 1 7-2 1 5 13-1 4-4-2-6-11-2-7 1-2h2l-3-9z" fill="#1B1B11"/>
<path transform="translate(680,638)" d="m0 0 4 2 6 1 5 5 4 7-1 3-3 1-9-5-3-1-3-6-3-3v-2z" fill="#1B1B11"/>
<path transform="translate(999,1180)" d="m0 0h1v8l-2 9-2 15-4 14-2 2v-8h-2l1-7 5-17 2-10z" fill="#646D5B"/>
<path transform="translate(736,630)" d="m0 0v3l-3 3-2 9 1 5-5 3-6 1 2 6-3 7-3-1-1 3h-2l-1 4-2-1 1-5 7-5-2-1 2-10 3-4 5-1-1-3 3-4 3-6z" fill="#C5955F"/>
<path transform="translate(522,481)" d="m0 0 2 1-1 2v6l9-3 2-1 14-1 13 1 4 2h-22l-10 3-6 4-1 2-6-1 1 6 2 1h-3l-2-1 1-5h-2l1-8z" fill="#1B1B11"/>
<path transform="translate(630,623)" d="m0 0h1l-1 11 4 2v2h9l1 5-3 1h-11l-6-3-5-2 1-4 5-2 3-3-1-4 2-1z" fill="#B88852"/>
<path transform="translate(615,637)" d="m0 0h2v3l9 3 5 8-4-2-5-5-4-1-3 2-7 4-7-1-3 3-7 1v-4l6-3 6-1 9-5z" fill="#7F5E32"/>
<path transform="translate(691,491)" d="m0 0h5l1 3 12 3 4 4h-5l-1 4-15-3-3-2 1-1 7-1-13-2-1-3z" fill="#B78751"/>
<path transform="translate(234,950)" d="m0 0h1v18l-3 13-2 2-2-6v-14l-2 1 3-10 4-1z" fill="#626A58"/>
<path transform="translate(705,649)" d="m0 0h2v13l-3 10h-3l1 3-5-1-1-5-4-2-5-5-4-5-5-1 1-2 7 1 11 11 2 1 3-4h2z" fill="#B78751"/>
<path transform="translate(766,578)" d="m0 0 1 2-3 28h-2l-1 9-2-4 1-6-5 1 1-5 2-4 2-7 3-9z" fill="#775F39"/>
<path transform="translate(752,282)" d="m0 0 7 5 4 7 2 7 3 20 3 6v2h-3l-4-8-4-14-2-14-3-6-3-3z" fill="#10110C"/>
<path transform="translate(666,627)" d="m0 0 13 1 12 2 9 4 6 8v7l-2-4-1-3-4-2v-2l-4-2-14-3-11-1-4-3z" fill="#BB8B55"/>
<path transform="translate(648,593)" d="m0 0h8l6 7-2 6h-7v-2l-7-1v-2l-4-1 4-5h2z" fill="#B58651"/>
<path transform="translate(1052,1331)" d="m0 0 2 2v12l1 5-3 9-6 1-1-5 2-6 2-10 1-7z" fill="#757F6E"/>
<path transform="translate(632,620)" d="m0 0 10 3 3 3v7l-6 2-7-1z" fill="#624623"/>
<path transform="translate(511,331)" d="m0 0h2l-2 5-9 12-2 4h-2l-1 7-3 8-3 7h-3l3-12 7-14 8-11z" fill="#1B1B11"/>
<path transform="translate(1123,1289)" d="m0 0h2l1 13v16l-5 1-2-2 1-14 2-3-1-3z" fill="#97A093"/>
<path transform="translate(786,524)" d="m0 0h1l3 10h2l1-4 2-3 2 1v13l-2 15h-1l-1-11-5-2-2-6 2-2-2-5z" fill="#C79862"/>
<path transform="translate(926,1363)" d="m0 0h3l1 5-1 29 3 1h-4l-1-4-2 3-1-1 1-30z" fill="#808A7B"/>
<path transform="translate(392,1202)" d="m0 0 1 4-4 12-5 18-1 1-1 10-4-2-2-3 3-3 5-18 5-15z" fill="#646D5B"/>
<path transform="translate(608,650)" d="m0 0 8 1 1 2-18 4h-3v2h-7l-5-3v-2l10-1 6-2z" fill="#15150D"/>
<path transform="translate(963,1338)" d="m0 0 1 4-6 24-5 22-2-3 1-5 1-19 4-5z" fill="#626B59"/>
<path transform="translate(264,984)" d="m0 0 2 1 4 29 2 11v6h-2l-1-9h-2l-3-21z" fill="#757F6E"/>
<path transform="translate(607,593)" d="m0 0 7 1 8 11v1h-6l-9-4-2-2v-5z" fill="#0C0C07"/>
<path transform="translate(713,490)" d="m0 0 9 1 2 1v2l-9-1v2l2 1 1 3h-3l-1 2-5-3-12-3-2-2 1-1 16-1z" fill="#C89A64"/>
<path transform="translate(709,465)" d="m0 0h10l5 5-4-2-8-1-5 2h-3v2l-2 2-1 3-7-1-7 1-3 1h-11l-6-1v-1l29-4 7-3z" fill="#6A5F42"/>
<path transform="translate(755,643)" d="m0 0h2v8l-4 14-3 1-2-2v-6l1-1 2-11z" fill="#27271B"/>
<path transform="translate(242,961)" d="m0 0 3 1 4 9 5 5-1 2-1-3-4-2-3-2-2-4-2 6 1 9 1 5-1 30h-1l-1-27-1-8v-12l1-7z" fill="#626B59"/>
<path transform="translate(702,506)" d="m0 0 9 3 5 4v2l-8-2v-2l-6-1-3 9-4-1 2-5-5-1-1-5 7 1 2-1 2 1z" fill="#47412E"/>
<path transform="translate(727,510)" d="m0 0 4 3v8l-14 3-7 3-6 1-3-2 5-6 1 2 4 1 5-2 9-1 3-1z" fill="#C5955F"/>
<path transform="translate(536,1335)" d="m0 0 2 1 5 13-1 4h-7l-2-1v-7l3-7z" fill="#919A8D"/>
<path transform="translate(712,462)" d="m0 0 5 1 7 3 7 8 3 3-1 2-8-7-4-5-2-1h-10l-9 5-9 1 5-4 10-5z" fill="#B88852"/>
<path transform="translate(520,676)" d="m0 0 5 2 3 4 1 4 7 1 1 4-3 3-3-1-3-3v-2l-5-1-3-5z" fill="#030302"/>
<path transform="translate(610,558)" d="m0 0h1l-1 9-3 7-7 1-1 4h-2l1-7 5-6h2l1-4z" fill="#624623"/>
<path transform="translate(711,503)" d="m0 0h5l7 6 2 9-1 1h-11l-2-4 4 2 7 1-6-7-2-1v-2l-3-1z" fill="#7D5D31"/>
<path transform="translate(999,1199)" d="m0 0 1 3-6 23-5 22-3 8h-2v-4h2l2-16 5-15 5-20z" fill="#919A8D"/>
<path transform="translate(693,741)" d="m0 0m-1 1 1 2-2 4h-2l-1 3-5 1-1 3-9 4-7 4h-5l4-2 5-3 4-4 9-6 5-3z" fill="#BC8C56"/>
<path transform="translate(712,466)" d="m0 0 8 1 5 3 1 4-4-1v-2h-3v2l-7 1-2-3h-5v2l-4-1 3-1v-2z" fill="#634926"/>
<path transform="translate(582,508)" d="m0 0 5 2 2 2v5l-4 4-8 1 1-4z" fill="#CFAF83"/>
<path transform="translate(757,431)" d="m0 0 5 10 3 2v3l4 1v3l3 1-4 1-4-2-4-4-2-1 1-4-3 1-2-10z" fill="#565E4A"/>
<path transform="translate(642,656)" d="m0 0 9 1v1l-9 2h-23l2 4-7-1-1-3 2-3h24z" fill="#BE8E58"/>
<path transform="translate(990,1219)" d="m0 0h1l-1 12-3 17-2 3v-8l-1-1 1-12 4-10z" fill="#5C6551"/>
<path transform="translate(620,611)" d="m0 0h10l-3 1v2l4 1 4-1-4 4-1 8-2 1-2-1-2-9-3-1z" fill="#C59660"/>
<path transform="translate(267,1022)" d="m0 0h2l1 9h2l2 10 5 18 1 7-2-3-1-3-2-1-4-16-4-20z" fill="#5C6552"/>
<path transform="translate(640,741)" d="m0 0 4 1 1 4 7 1v-2h2l-2 4-4 2-7-2-2-3h-2v6l-2-2-5-2 3-3h4l1-3z" fill="#5E4322"/>
<path transform="translate(743,282)" d="m0 0h3l2 1 2 2v6l-6-1 3 3 1 6v7l-2 4-1 5h-1v-13l1-4-2-3-1-12z" fill="#636B59"/>
<path transform="translate(936,1368)" d="m0 0h6l1 3v9l-2-1v-7l-4 1-2 8-1 16-2-1v-7l-1-6h2l-1-6z" fill="#697261"/>
<path transform="translate(743,691)" d="m0 0v3l-10 11-4 6-8 6 1-4 5-5 5-8 5-6h3v-2z" fill="#6F522B"/>
<path transform="translate(665,521)" d="m0 0 2 1v2l3 1v2l9 1 2-5 12 2-1 3h-5v2h-15l-10-6 3-1z" fill="#C69660"/>
<path transform="translate(747,384)" d="m0 0 2 1 1 8h-2l2 3 5 2-2 4-3 4-1 5h-1l-1-12-1-4v-8z" fill="#624623"/>
<path transform="translate(935,1318)" d="m0 0h2l-1 9-4 13-4 23h-1v-10l5-23 1-9z" fill="#8B9486"/>
<path transform="translate(280,1066)" d="m0 0 2 2 8 24 1 11 2 4v5l-2-1-2-7-2-11-3-8-2-10z" fill="#6B7563"/>
<path transform="translate(623,635)" d="m0 0 10 3 4 2-1 3-6 1-6-3-5-2 1-3z" fill="#D8B17F"/>
<path transform="translate(933,1332)" d="m0 0h1v10l-2 6-2 10h2l1 3-2 9-1 8h-1v-13l-1-6 3-19z" fill="#5B6450"/>
<path transform="translate(757,607)" d="m0 0h3v19l-2 4-1-4v-3h2v-2l-5-1 1-9z" fill="#594527"/>
<path transform="translate(723,693)" d="m0 0h5v6l-4 5h-2l-1 3h-3l1-7h2z" fill="#5E4D2F"/>
<path transform="translate(556,491)" d="m0 0 12 2 2 2-7 2-5-1-8-1-1 2h-2l-1-4z" fill="#B78751"/>
<path transform="translate(669,754)" d="m0 0 3 1-1 2-16 6-21 1-1-2 5-1h13l5-1h2v-2l9-2z" fill="#684B27"/>
<path transform="translate(643,472)" d="m0 0 6 2v2l10-2v2l-5 1-1 2-8-1-4-1-1 13h-1v-14z" fill="#C69660"/>
<path transform="translate(726,473)" d="m0 0 4 2 7 8 3 4v6h-8l-7-3 3-1h9l-2-7h-2l-5-5z" fill="#695330"/>
<path transform="translate(668,328)" d="m0 0 3 4 4 10v4l-4-1-3-5-1-11z" fill="#030302"/>
<path transform="translate(577,335)" d="m0 0 4 2 7 6 3 6v2l-5-2-7-9z" fill="#1B1B11"/>
<path transform="translate(668,1359)" d="m0 0 4 4-1 10 1 5-2 1-2-1-1-17z" fill="#757F6E"/>
<path transform="translate(511,331)" d="m0 0h2l-2 5-9 12-2 4-3 1 1-5 8-11z" fill="#212217"/>
<path transform="translate(243,1031)" d="m0 0h1l4 30-1 4-3-7v-5l-1-1z" fill="#5C6552"/>
<path transform="translate(755,621)" d="m0 0h4l-1 8 1 2-2 3h-2l-1 2-2-2-1-3 2-6h2l-1-3z" fill="#5F4422"/>
<path transform="translate(556,509)" d="m0 0h2l4 7 2 5-7-1-2-1-1-8h2z" fill="#C29C6B"/>
<path transform="translate(579,470)" d="m0 0 18 4 2 3-6 1-3-2-7-1-2-1-5-2z" fill="#6C4F28"/>
<path transform="translate(747,408)" d="m0 0 2 4v13l-1 4 2 6h-2l-1 4-2-12 1-9v-9z" fill="#6E6446"/>
<path transform="translate(926,1373)" d="m0 0h1v11l-1 6h2v-5h1v12l3 1h-4l-1-4-2 3-1-1 1-21z" fill="#6A7361"/>
<path transform="translate(645,496)" d="m0 0 11 3 1 5-3 7 6 1v7l-2-4-4-1-2-1 1-8v-4l-8-3z" fill="#C69660"/>
<path transform="translate(741,400)" d="m0 0 2 2v22l-1 13 1 6-2-2-1-8v-13l1-2z" fill="#C69660"/>
<path transform="translate(310,1151)" d="m0 0h1v13l1 5h-2l-6-9 3-7h2z" fill="#646D5B"/>
<path transform="translate(647,755)" d="m0 0 8 2-1 2-9 1-7-1-6 2-3-2 13-3z" fill="#030302"/>
<path transform="translate(599,656)" d="m0 0h5v2l-5 1v2l2 1-1 2-9-2-4-2v-2l9 1v-2z" fill="#624623"/>
<path transform="translate(767,580)" d="m0 0h2l-2 13v16h-5l1-3 3-25z" fill="#BA8A54"/>
<path transform="translate(574,500)" d="m0 0 7 3 1 4-3 4-5 1-2-2v-4h7v-2l-5-2z" fill="#212015"/>
<path transform="translate(689,472)" d="m0 0h7l-4 1v2l-5 1-3 1h-11l-6-1v-1z" fill="#625D44"/>
<path transform="translate(984,1242)" d="m0 0 2 2-2 11h-2l-2 7h-1l1-11z" fill="#58604C"/>
<path transform="translate(745,817)" d="m0 0v3l-8 5-9 5-4-2 2-2 16-7z" fill="#CAD1C7"/>
<path transform="translate(522,710)" d="m0 0 1 3 4 2 1 4-4 4-1 11h-1z" fill="#9B7B4F"/>
<path transform="translate(688,503)" d="m0 0h7l7 3v2l-6 1-5-2-1 4v-5l-9-1v-1z" fill="#1A1A11"/>
<path transform="translate(714,369)" d="m0 0 13 2 8 8 4 7h-2l-3-4v-2h-2v-2h-2l-3-3-9-2-5-2z" fill="#C69660"/>
<path transform="translate(485,789)" d="m0 0 4 4 4 5 4 2 4 4v4h2l2 5-3-2v-2l-3-1-7-8-6-7z" fill="#6E6B51"/>
<path transform="translate(667,1295)" d="m0 0 5 2v7l-5 1-2-5v-4z" fill="#737D6C"/>
<path transform="translate(982,1255)" d="m0 0h2l-1 9-5 18h-1l1-8 2-14z" fill="#6D7765"/>
<path transform="translate(252,957)" d="m0 0h2l1 5 4 1v-2h2l3 14v6h-1l-2-9v-4h-2l-6-7z" fill="#757F6E"/>
<path transform="translate(765,310)" d="m0 0h1l3 14 2 5h-3l-4-8-2-6 1-4v3h2z" fill="#2B2D23"/>
<path transform="translate(664,303)" d="m0 0 3 3 3 14v5l-2-1-4-14z" fill="#575F4B"/>
<path transform="translate(555,1288)" d="m0 0 4 1 1 4-1 4v8l-3-1v-8z" fill="#919A8D"/>
<path transform="translate(728,302)" d="m0 0 2 2 1 9-2 14-2-2v-22z" fill="#59614E"/>
<path transform="translate(990,1228)" d="m0 0 2 3-4 19-2 5h-2v-4h2l2-16z" fill="#889183"/>
<path transform="translate(674,511)" d="m0 0 4 1 3 8 4 2 10 1-2 2-13-1-4-10-4-2z" fill="#B78751"/>
<path transform="translate(929,1378)" d="m0 0h1l3 11v7l-4 1z" fill="#3D4232"/>
<path transform="translate(1006,1317)" d="m0 0 7 3 1 2-2 3-4 1-4-4 1-4z" fill="#919A8D"/>
<path transform="translate(628,683)" d="m0 0h4l3 5-1 5h-3l-2-2-2-7z" fill="#1B1B11"/>
<path transform="translate(650,594)" d="m0 0 4 1 1 4-1 1h-9l1-5z" fill="#0F0D08"/>
<path transform="translate(792,500)" d="m0 0 3 1 1 7h-5l-9 9 2-5 5-6 2-3 1 2z" fill="#C69761"/>
<path transform="translate(293,1112)" d="m0 0 2 2 3 11 1 5h2v-6h1v8l-4 1-3-9-1-4z" fill="#626B59"/>
<path transform="translate(766,578)" d="m0 0 1 2-1 9-5 6-2 3v-5l2-5z" fill="#636A56"/>
<path transform="translate(703,486)" d="m0 0 8 1-1 2-12 2h-6l1-3 7-1z" fill="#644F2E"/>
<path transform="translate(481,575)" d="m0 0 2 1-1 6-4 4-3 5h-2l-1 2 1-6h2v-5h5v-6z" fill="#7E6035"/>
<path transform="translate(671,513)" d="m0 0h5l2 2-1 7-5-2z" fill="#D7B07E"/>
<path transform="translate(655,656)" d="m0 0h9l1 3h6l-3 2-8 5-1-2h2l1-7h-7z" fill="#C69660"/>
<path transform="translate(596,652)" d="m0 0m-2 1h2v2l-2 1 2 1v2h-7l-5-3v-2z" fill="#1B1B11"/>
<path transform="translate(597,645)" d="m0 0 4 1-1 4-9 2v-4z" fill="#7D5D31"/>
<path transform="translate(680,512)" d="m0 0 3 1 4 4 6 1-1 4h-5l-4-2-1-6h-2z" fill="#1E1C11"/>
<path transform="translate(767,455)" d="m0 0 1 4v3h2v2l4 1v3l-6-1 1-4-3-1-4-4h-2v-2z" fill="#674C27"/>
<path transform="translate(718,276)" d="m0 0 4 1 7 6 3 4-1 4-8-10-4-2z" fill="#10110C"/>
<path transform="translate(467,568)" d="m0 0 3 1 1 6 3 4-1 6-3-2-3-12z" fill="#222216"/>
<path transform="translate(716,725)" d="m0 0v3l-11 12-4 1v-2l5-4 4-5h2v-3z" fill="#C69660"/>
<path transform="translate(743,282)" d="m0 0h3l2 1 2 2v6l-7-2-1-6z" fill="#474D3E"/>
<path transform="translate(629,637)" d="m0 0 14 1 1 5-3 1-5-1v-3l-7-2z" fill="#C69660"/>
<path transform="translate(790,574)" d="m0 0h2v5l-2 2-6 1-3-1 1-3 6-2z" fill="#C69761"/>
<path transform="translate(240,930)" d="m0 0 3 1 1 10 2 4h2l2 7v3l-4-5-1-6h-2l-1-2-1-10z" fill="#626B59"/>
<path transform="translate(546,835)" d="m0 0 10 2 9 3v2l-8-1-10-4z" fill="#CAA06C"/>
<path transform="translate(512,819)" d="m0 0 6 2 5 3v2l-9-2v2l-4-1v-5z" fill="#8C9587"/>
<path transform="translate(653,594)" d="m0 0 4 2 1 4-4 2h-8l-4-2 3-3v3l9-1z" fill="#6F512A"/>
<path transform="translate(714,511)" d="m0 0h3v2l4 2 1 3h-7l-5-3v-2l6 2z" fill="#624825"/>
<path transform="translate(726,306)" d="m0 0h2v19l1 4h-3z" fill="#1B1B11"/>
<path transform="translate(795,774)" d="m0 0 6 2 4 4h-3l-4-1-5 2v-4z" fill="#BDC5B9"/>
<path transform="translate(758,631)" d="m0 0 1 3v9l-2 4-1-2 1-2-3 1 1-10z" fill="#606652"/>
<path transform="translate(487,546)" d="m0 0 2 4-2 15-2-4-1-9z" fill="#7D5D31"/>
<path transform="translate(641,1179)" d="m0 0 3 3 2 5-1 2-4-1-2-4v-4z" fill="#919A8D"/>
<path transform="translate(768,525)" d="m0 0 3 3-1 7h5v1l-5 1-2 3v-6l-2-7z" fill="#C0905A"/>
<path transform="translate(727,510)" d="m0 0 4 3v8l-8 1 3-3h2z" fill="#C69660"/>
<path transform="translate(902,1391)" d="m0 0h2l2 5-2 4h-2l-3-4 1-4z" fill="#757F6E"/>
<path transform="translate(653,311)" d="m0 0 2 2 2 7 2 3v5l-3-1-3-10z" fill="#58604C"/>
<path transform="translate(721,698)" d="m0 0 2 1 3 2-2 3h-2l-1 3h-3l1-7h2z" fill="#555D49"/>
<path transform="translate(711,503)" d="m0 0 4 2 5 5v2l-4-1-2-1v-2l-3-1z" fill="#B78751"/>
<path transform="translate(745,389)" d="m0 0h2v9l1 1v9h-2l-1-9-1-1z" fill="#785F38"/>
<path transform="translate(935,1318)" d="m0 0h2l-1 9-2 4-1-1v-9z" fill="#879182"/>
<path transform="translate(720,715)" d="m0 0 1 3-4 5-3 2h-3l2-4 4-4z" fill="#6A4D27"/>
<path transform="translate(274,1045)" d="m0 0 2 4 4 13-1 4-2-6-2-1-1-7z" fill="#6B7563"/>
<path transform="translate(642,656)" d="m0 0 9 1v1l-9 2h-6l-2-2 5-1z" fill="#BD8D57"/>
<path transform="translate(564,513)" d="m0 0 2 1 1 3 11 1-1 2h-11l-3-1z" fill="#212014"/>
<path transform="translate(583,512)" d="m0 0h3l1 3-2 3-6 1v-4z" fill="#C2C9BF"/>
<path transform="translate(752,282)" d="m0 0 7 5 3 4-1 4-2 3-3-10-4-4z" fill="#505548"/>
<path transform="translate(622,665)" d="m0 0 1 3 4 1 2 4-8-1-1-5z" fill="#C69660"/>
<path transform="translate(763,601)" d="m0 0h1v7h-2l-1 9-2-4 1-6 2-5z" fill="#6B7360"/>
<path transform="translate(680,517)" d="m0 0 5 3 7 1 3-2h3l-2 4h-11l-5-3z" fill="#6C5A39"/>
<path transform="translate(791,511)" d="m0 0 1 3-2 10-2-3v-4l-2-1 1-2h2v-2z" fill="#7D5D31"/>
<path transform="translate(939,1368)" d="m0 0h3l1 3v9l-2-1v-7l-5 1v-2z" fill="#99A294"/>
<path transform="translate(752,407)" d="m0 0 5 2v7h-2v-3l-4 1-1-5h2z" fill="#595840"/>
<path transform="translate(693,366)" d="m0 0h5l5 1h6l4 3-3 1-5-1-9-2z" fill="#C69660"/>
<path transform="translate(648,360)" d="m0 0 2 1-6 3-11 1-2-2z" fill="#C69660"/>
<path transform="translate(1123,1289)" d="m0 0h2v11l-4-1z" fill="#9FA89B"/>
<path transform="translate(398,1163)" d="m0 0h4l1 5-2 3h-2l-2-7z" fill="#757F6E"/>
<path transform="translate(633,652)" d="m0 0h8l-2 4-9 1z" fill="#624623"/>
<path transform="translate(625,651)" d="m0 0 8 2-1 3h-6l-3-2v-2z" fill="#1A1A10"/>
<path transform="translate(465,546)" d="m0 0 3 1-1 6 1 3-1 3h-2l-1-12z" fill="#82663D"/>
<path transform="translate(745,671)" d="m0 0 3 1 1 6-3 2-1-4h-3v-2h2z" fill="#4E4F3B"/>
<path transform="translate(595,602)" d="m0 0 5 2 6 3-1 2-8-2z" fill="#1B1B11"/>
<path transform="translate(635,626)" d="m0 0 6 2-1 5-5-1z" fill="#1B1B11"/>
<path transform="translate(655,620)" d="m0 0 4 1 2 4 7 1-2 2-5-1-6-5z" fill="#BC8C56"/>
<path transform="translate(690,745)" d="m0 0 2 1-1 2h-2l-1 3-5 1-1 3-6 1 2-2h3l1-3 6-4h2z" fill="#C69660"/>
<path transform="translate(679,311)" d="m0 0 3 4v9l-3-3-1-6z" fill="#575F4B"/>
<path transform="translate(667,652)" d="m0 0h11l-3 3-5 1-3-2z" fill="#644824"/>
<path transform="translate(620,611)" d="m0 0h6l-1 2h-3l4 4v5l-2-2v-3l-3-1z" fill="#B78751"/>
<path transform="translate(765,598)" d="m0 0h1l1 11h-5l2-10z" fill="#BD905C"/>
<path transform="translate(675,509)" d="m0 0 6 2-1 3h2l1 6-2-1v-2h-2l-2-5-3-2z" fill="#694D28"/>
<path transform="translate(721,465)" d="m0 0 3 1 7 8 3 3-1 2-8-7-4-5z" fill="#BC8C56"/>
<path transform="translate(658,350)" d="m0 0 3 1-1 3h-11l3-3z" fill="#624623"/>
<path transform="translate(821,994)" d="m0 0 7 1v4l-7-1z" fill="#FEFEFE"/>
<path transform="translate(744,664)" d="m0 0 8 1-1 6-2-1v-2h-5z" fill="#5A614D"/>
<path transform="translate(485,489)" d="m0 0h3l1 2v9h-2l-2-4z" fill="#0C0D0A"/>
<path transform="translate(762,436)" d="m0 0 7 1 1 3-5 1-4-2z" fill="#575F4B"/>
<path transform="translate(666,1273)" d="m0 0h2l4 9-3 1-2-1z" fill="#757F6E"/>
<path transform="translate(257,984)" d="m0 0h2v9l-1 7h-1l-1-13z" fill="#5B6350"/>
<path transform="translate(731,824)" d="m0 0 3 1-3 3-5 2-2-3z" fill="#C7CEC4"/>
<path transform="translate(659,597)" d="m0 0 3 3-2 6h-7v-3h5z" fill="#C69660"/>
<path transform="translate(626,594)" d="m0 0 5 1 4 1 3 5v2h-2v-3l-5-2z" fill="#C69660"/>
<path transform="translate(709,508)" d="m0 0 7 5v2l-8-2z" fill="#1F2015"/>
<path transform="translate(590,473)" d="m0 0 7 1 2 3-6 1-3-3z" fill="#70522B"/>
<path transform="translate(694,353)" d="m0 0 9 2-1 2h-9z" fill="#523C1F"/>
<path transform="translate(933,1332)" d="m0 0h1v10l-1 3h-2l-1 2 2-10z" fill="#67715E"/>
<path transform="translate(477,1266)" d="m0 0 3 1-1 7h-2l-1-7z" fill="#757F6E"/>
<path transform="translate(622,642)" d="m0 0 4 1 5 8-4-2-5-5z" fill="#7D5D31"/>
<path transform="translate(757,618)" d="m0 0h3v8l-2 4-1-4v-3h2v-2h-3z" fill="#636C59"/>
<path transform="translate(572,506)" d="m0 0 4 1 2 1v3l-4 1-2-2z" fill="#C3BAA1"/>
<path transform="translate(725,489)" d="m0 0 11 1v2l4-1v2h-8l-7-3z" fill="#73613E"/>
<path transform="translate(715,469)" d="m0 0 6 1-2 1v2l-7 1-1-3z" fill="#575F4B"/>
<path transform="translate(656,353)" d="m0 0 5 2v1h-13v-2z" fill="#7B5D32"/>
<path transform="translate(610,256)" d="m0 0 5 1-8 4h-5l4-4z" fill="#303327"/>
<path transform="translate(743,280)" d="m0 0h2l-1 2z" fill="#646D5B"/>
</svg>
