
<svg xmlns="http://www.w3.org/2000/svg" width="560" height="315" viewBox="0 0 560 315" version="1.1"><path d="M 183 109.880 L 183 122.760 176.750 123.221 C 173.313 123.474, 168.925 123.232, 167 122.684 C 160.486 120.826, 145.115 121.480, 138.884 123.880 C 131.053 126.896, 125.413 132.793, 123.902 139.545 C 121.079 152.163, 126.940 160.056, 144.500 167.281 C 151.598 170.202, 152.537 170.893, 152.828 173.408 C 153.009 174.968, 152.704 176.696, 152.152 177.248 C 149.422 179.978, 139.008 177.677, 131.757 172.741 C 130.248 171.714, 128.581 171.141, 128.052 171.468 C 127.524 171.794, 125.833 174.374, 124.296 177.201 L 121.500 182.340 121 152.920 L 120.500 123.500 108 123.500 L 95.500 123.500 95.195 126.130 L 94.890 128.760 87.885 125.166 C 81.419 121.848, 80.206 121.571, 72.138 121.571 C 64.529 121.571, 62.631 121.946, 57.491 124.461 C 34.256 135.828, 28.978 169.030, 47.466 187.519 C 52.752 192.804, 57.631 195.383, 65.369 196.980 C 74.504 198.865, 84.711 196.531, 91.797 190.937 L 94.500 188.804 95 192.152 L 95.500 195.500 108 195.500 L 120.500 195.500 120.799 192.929 L 121.098 190.359 126.492 193.079 C 129.458 194.576, 135.156 196.352, 139.154 197.026 C 151.465 199.102, 167.271 195.768, 173.869 189.701 C 179.966 184.096, 181.911 171.579, 177.955 163.406 C 175.596 158.533, 167.803 152.656, 160.926 150.563 C 158.492 149.822, 154.563 148.434, 152.196 147.478 C 148.507 145.988, 147.936 145.370, 148.196 143.155 C 148.433 141.139, 149.213 140.426, 151.743 139.913 C 155.599 139.131, 163.056 140.382, 167.372 142.536 C 170.217 143.955, 170.571 143.940, 171.734 142.349 C 172.430 141.397, 173 141.154, 173 141.809 C 173 142.569, 174.781 143, 177.922 143 L 182.844 143 183.174 161.750 C 183.495 179.986, 183.580 180.644, 186.267 185.745 C 191.223 195.156, 201.122 199.229, 213.711 197.037 C 219.145 196.090, 226.035 193.670, 225.989 192.724 C 225.983 192.601, 225.322 190.336, 224.519 187.692 L 223.061 182.883 227.780 187.046 C 234.106 192.625, 240.350 195.654, 248.420 197.059 C 262.194 199.458, 278.513 194.591, 286.784 185.619 L 290.822 181.237 291.892 185.485 C 293.215 190.741, 299.156 196.432, 304.333 197.403 C 315.224 199.446, 326.075 188.635, 323.549 178.257 C 321.682 170.586, 314.893 165, 307.437 165 C 302.091 165, 295.599 169.082, 293.336 173.867 L 291.500 177.750 282.863 173.422 L 274.226 169.093 272.363 171.153 C 263.137 181.354, 242 177.106, 242 165.050 C 242 163.036, 242.457 163, 268 163 L 294 163 293.992 160.750 C 293.974 155.180, 291.712 145.055, 289.434 140.339 C 284.843 130.838, 274.681 123.957, 262.193 121.895 C 249.816 119.851, 237.213 123.528, 227.750 131.945 L 223 136.170 223 129.585 L 223 123 215.500 123 L 208 123 208 110 L 208 97 195.500 97 L 183 97 183 109.880 M 365.293 122.449 C 362.979 123.172, 359.154 125.188, 356.793 126.930 L 352.500 130.096 352.190 126.548 L 351.879 123 339.440 123 L 327 123 327 159.500 L 327 196 339.500 196 L 352 196 352 173.968 C 352 150.307, 352.591 146.800, 357.117 143.631 C 361.676 140.438, 369.631 141.983, 372.698 146.658 C 374.260 149.039, 374.567 152.470, 375 172.452 L 375.500 195.500 388 195.500 L 400.500 195.500 401 172 C 401.356 155.252, 401.877 147.840, 402.811 146.202 C 405.252 141.923, 412.928 140.663, 418.066 143.698 C 423.246 146.758, 424 150.675, 424 174.520 L 424 196 436.500 196 L 449 196 449.052 186.250 C 449.103 176.846, 449.163 176.589, 450.751 179 C 453.832 183.681, 461.899 190.915, 466.817 193.408 C 482.718 201.465, 505.530 197.693, 517.355 185.052 C 519.910 182.320, 522 179.621, 522 179.053 C 522 178.485, 518.006 176.014, 513.125 173.563 L 504.250 169.105 502.003 171.496 C 496.736 177.103, 487.140 178.609, 479.316 175.057 C 475.050 173.120, 472 168.948, 472 165.050 C 472 163.036, 472.456 163, 498.129 163 L 524.258 163 523.552 155.831 C 522.148 141.583, 516.299 132.096, 505.321 126.260 C 486.908 116.472, 463.184 121.929, 452.226 138.473 L 449.120 143.161 448.082 139.331 C 446.260 132.611, 442.569 128.406, 435.392 124.872 C 423.383 118.960, 411.706 120.699, 401.742 129.884 L 397.336 133.945 395.170 131.016 C 392.123 126.895, 385.519 123.339, 378.566 122.077 C 371.353 120.768, 370.604 120.789, 365.293 122.449 M 249.378 139.382 C 245.897 140.958, 243 144.519, 243 147.223 C 243 148.835, 244.209 149, 256.003 149 L 269.006 149 267.711 145.827 C 266.999 144.081, 265.249 141.782, 263.822 140.717 C 260.474 138.217, 253.397 137.563, 249.378 139.382 M 480.313 139.053 C 476.754 140.138, 473 144.287, 473 147.135 C 473 148.859, 473.980 149, 486.003 149 L 499.006 149 497.711 145.827 C 495.219 139.719, 487.713 136.797, 480.313 139.053 M 72.271 144.964 C 64.204 148.626, 61.002 158.399, 65.138 166.738 C 69.488 175.508, 80.026 178.311, 88.734 173.016 C 98.571 167.033, 97.256 149.746, 86.595 144.904 C 81.383 142.537, 77.582 142.553, 72.271 144.964 M 208 155.351 C 208 172.178, 209.501 175.916, 215.639 174.376 C 217.351 173.946, 217.936 173.274, 217.526 172.207 C 214.680 164.790, 214.686 154.974, 217.543 146.879 L 218.911 143 213.456 143 L 208 143 208 155.351" stroke="none" fill="#fffcfc" fill-rule="evenodd"/><path d="" stroke="none" fill="#fcfcfc" fill-rule="evenodd"/></svg>
